<?xml version="1.0" encoding="utf-8"?><svg xmlns="http://www.w3.org/2000/svg" xmlns:xlink="http://www.w3.org/1999/xlink"><symbol viewBox="0 0 28 28" id="calendar" xmlns="http://www.w3.org/2000/svg"><path d="M23.4 4.2c.3 0 .5-.3.5-.7V.7c0-.4-.2-.7-.5-.7s-.5.3-.5.7v2.8c0 .4.2.7.5.7zm-9.6 0c.3 0 .5-.3.5-.7V.7c0-.4-.2-.7-.5-.7s-.5.3-.5.7v2.8c0 .4.2.7.5.7zm-9.4 0c.3 0 .5-.3.5-.7V.7c0-.4-.2-.7-.5-.7s-.5.3-.5.7v2.8c0 .4.2.7.5.7z"/><path d="M28 4c0-1.2-1-2.2-2.1-2.2h-1.4v1.7c0 .7-.5 1.3-1.1 1.3-.6 0-1.1-.6-1.1-1.3V1.8h-7.4v1.7c0 .7-.5 1.3-1.1 1.3-.6 0-1.1-.6-1.1-1.3V1.8H5.5v1.7c0 .7-.5 1.3-1.1 1.3-.6 0-1.1-.6-1.1-1.3V1.8H2.1C1 1.8 0 2.8 0 4v21.8C0 27 1 28 2.1 28h23.8c1.2 0 2.1-1 2.1-2.1V4zm-1.9 20.4c0 1.1-.8 1.9-1.9 1.9H3.5c-1 0-1.9-.9-1.9-1.9V7.2c0-.2 0-.4.1-.5H26c0 .2.1.3.1.5v17.2z"/><path d="M3.8 12l.5 2.3 2.6-1.2v10.5H10V10.4H7.4L3.8 12zM19 21l1.3-1c2-1.7 3.6-3.5 3.6-5.7 0-2.4-1.7-4.1-4.8-4.1-1.8 0-3.4.6-4.4 1.4l.9 2.2c.7-.5 1.7-1.1 2.9-1.1 1.6 0 2.2.9 2.2 1.9 0 1.5-1.5 3-4.5 5.6l-1.7 1.5v1.9h9.6v-2.5L19 21z"/></symbol><symbol viewBox="0 0 42 23" id="car" xmlns="http://www.w3.org/2000/svg"><path d="M3.3 16h24.6v3.3H10c-.5-1.4-1.9-2.5-3.6-2.5-1.6 0-3 1-3.6 2.4-.7-.2-1.2-.8-1.2-1.5v-.1c0-.9.8-1.6 1.7-1.6zm5.8 4.2c0 1.5-1.3 2.8-2.8 2.8-1.6 0-2.8-1.2-2.8-2.8 0-1.5 1.3-2.8 2.8-2.8 1.5 0 2.8 1.3 2.8 2.8zm-.9 0c0-1.1-.9-1.9-2-1.9s-2 .9-2 1.9c0 1.1.9 1.9 2 1.9 1.2 0 2-.8 2-1.9zm29.7 0c0 1.5-1.3 2.8-2.8 2.8-1.6 0-2.8-1.2-2.8-2.8 0-1.5 1.3-2.8 2.8-2.8 1.5 0 2.8 1.3 2.8 2.8zm-.9 0c0-1.1-.9-1.9-2-1.9s-2 .9-2 1.9c0 1.1.9 1.9 2 1.9s2-.8 2-1.9zm5-8v6.3c0 .3-.2.5-.5.5h-2.8c-.6-1.3-1.9-2.2-3.5-2.2-1.5 0-2.9.9-3.5 2.2h-1.9c-.3 0-.5-.2-.5-.5V5.9c0-.3.2-.5.5-.5H37c.3 0 .8.1 1.1.5l3.9 6.3zm-2.5-1.3l-2.4-4c-.2-.3-.4-.5-1.2-.5h-4.4c-.3 0-.5.2-.5.5v4c0 .3.2.5.5.5h7.6c.1 0 .4-.2.4-.5zm2.1 6c0-.3-.2-.5-.5-.5s-.5.2-.5.5v.9c0 .3.2.5.5.5s.5-.2.5-.5v-.9zM0 15h27.9V0H0v15z"/></symbol><symbol viewBox="0 0 57 40" id="car-work" xmlns="http://www.w3.org/2000/svg"><path d="M42.7 22.9h-2.9c-.5 0-1 .4-1 1 0 .5.4 1 1 1h2.9c.5 0 1-.4 1-1s-.4-1-1-1zm1.9 9.5v1.9h1.9v-1.9h-1.9zm-34.2 0v1.9h1.9v-1.9h-1.9z"/><path d="M57 24.2c0-.1 0-.3-.1-.4v-.1c-.5-2.7-2.8-4.7-5.6-4.7h-1.9v-6c0-3-2.4-5.4-5.4-5.4h-7.9V3.8c0-2.1-1.7-3.8-3.8-3.8H3.8C1.7 0 0 1.7 0 3.8v27.6c0 .5.4 1 .9 1h3.9c0 .3-.1.6-.1 1 0 3.7 3 6.7 6.7 6.7h11.4c.5 0 1-.4 1-1 0-.5-.4-1-1-1H16c1.2-1.2 2-2.9 2-4.8 0-.3 0-.6-.1-1H39c0 .3-.1.6-.1 1 0 1.9.8 3.6 2 4.8h-6.8c-.5 0-1 .4-1 1 0 .5.4 1 1 1H56c.5 0 1-.4 1-1 0-.5-.4-1-1-1h-5.8c1.2-1.2 2-2.9 2-4.8 0-.3 0-.6-.1-1H56c.5 0 1-.4 1-1V24.2zM6.7 28.6c-.3.3-.5.5-.7.8v.1c-.2.3-.4.6-.6 1H1.9v-1.9h4.8c.1 0 .1 0 0 0zm7.5 5.7c0 1-.8 1.9-1.9 1.9h-1.9c-1 0-1.9-.8-1.9-1.9v-1.9c0-1 .8-1.9 1.9-1.9h1.9c1 0 1.9.8 1.9 1.9v1.9zM9.5 23.8c-.5 0-.9-.4-.9-1V5.7c0-.5.4-1 .9-1h17.1c.5 0 1 .4 1 1v17.1c0 .5-.4 1-1 1H9.5zm24.7 6.7H17.4c-.2-.3-.3-.7-.6-1v-.1c-.2-.3-.5-.6-.7-.8h18.2v1.9zm1.9-21H44c1.4 0 2.5.8 3.1 1.9H39c-.5 0-.9.4-.9 1v3.8c0 .5.4 1 .9 1h8.6V19H36.1V9.5zm12.3 24.8c0 1-.8 1.9-1.9 1.9h-1.9c-1 0-1.9-.8-1.9-1.9v-1.9c0-1 .8-1.9 1.9-1.9h1.9c1 0 1.9.8 1.9 1.9v1.9zm6.7-3.8h-3.5c-.3-.5-.6-1-1-1.5l-.1-.1-.6-.6c-.2-.2-.5-.4-.7-.5 0 0-.1 0-.1-.1-.2-.1-.5-.3-.7-.4h-.1c-.3-.1-.5-.2-.8-.3h-.1c-.2-.1-.5-.1-.7-.2h-.2c-.3 0-.6-.1-.9-.1-.3 0-.6 0-.9.1h-.2c-.3 0-.5.1-.7.2h-.1c-.3.1-.6.2-.8.3h-.1c-.2.1-.5.2-.7.4 0 0-.1 0-.1.1-.2.2-.5.3-.7.5l-.6.6-.1.1c-.4.4-.7.9-1 1.5h-3.5V21h15.1c1.4 0 2.6.8 3.3 1.9h-2.3c-.5 0-1 .4-1 1v3.8c0 .5.4 1 1 1H55v1.8h.1zM4.7 38.1H.9c-.5 0-.9.4-.9 1 0 .5.4 1 .9 1h3.8c.5 0 .9-.4.9-1 .1-.6-.3-1-.9-1z"/><path d="M30.4 38.1h-3.8c-.5 0-.9.4-.9 1 0 .5.4 1 .9 1h3.8c.5 0 .9-.4.9-1s-.4-1-.9-1zM16.1 6.7v4.9l1.4-.9c.2-.1.3-.2.5-.2s.4.1.5.2l1.4.9V6.7h-3.8z"/><path d="M21.8 6.7v6.7c0 .4-.2.7-.5.8-.1.1-.3.1-.4.1-.2 0-.4-.1-.5-.2L18 12.6l-2.3 1.6c-.3.2-.7.2-1 0-.3-.2-.5-.5-.5-.8V6.7h-3.8v15.2h15.2V6.7h-3.8zM20.9 20h-5.7c-.5 0-.9-.4-.9-1 0-.5.4-1 .9-1h1.9v-1.9c0-.5.4-1 1-1 .5 0 1 .4 1 1V18H21c.5 0 .9.4.9 1-.1.6-.5 1-1 1z"/></symbol><symbol viewBox="0 0 442.533 442.533" id="check" xmlns="http://www.w3.org/2000/svg"><path d="M434.539 98.499l-38.828-38.828c-5.324-5.328-11.799-7.993-19.41-7.993-7.618 0-14.093 2.665-19.417 7.993L169.59 247.248l-83.939-84.225c-5.33-5.33-11.801-7.992-19.412-7.992-7.616 0-14.087 2.662-19.417 7.992L7.994 201.852C2.664 207.181 0 213.654 0 221.269c0 7.609 2.664 14.088 7.994 19.416l103.351 103.349 38.831 38.828c5.327 5.332 11.8 7.994 19.414 7.994 7.611 0 14.084-2.669 19.414-7.994l38.83-38.828L434.539 137.33c5.325-5.33 7.994-11.802 7.994-19.417.004-7.611-2.669-14.084-7.994-19.414z"/></symbol><symbol viewBox="0 0 81 26" id="circle-arrow" xmlns="http://www.w3.org/2000/svg"><path d="M78.4 25.2c.3-.1.5-.2.7-.3.1 0 .1-.1.2-.1.2-.1.3-.2.5-.4l.2-.2.1-.1.3-.6v-.1c.1-.2.1-.5.1-.7v-.1l-.7-15.9c0-1.2-1.1-2-2.3-1.8-1.2.2-2.1 1.4-2.1 2.6l.3 8.6C70 10.2 62.6 6.6 62.3 6.5 40.2-5.4 12.5 1.6.5 22c-.6 1-.4 2.2.4 2.8.1.1.2.2.3.2 1 .5 2.3.1 3-1.1C14.8 5.8 39.9-.3 60.1 10.4c.1 0 7.7 3.8 13.1 9.5l-9.9-1.3c-1.2-.2-2.3.7-2.7 1.9-.3 1.2.4 2.3 1.5 2.5l15.6 2.1c.3.1.5.1.7.1z"/></symbol><symbol viewBox="0 0 28 28" id="clock" xmlns="http://www.w3.org/2000/svg"><path fill-rule="evenodd" clip-rule="evenodd" d="M26.1 21c-1.3 2.1-3 3.8-5.1 5.1-2.1 1.3-4.5 1.9-7 1.9s-4.9-.6-7-1.9c-2.1-1.3-3.8-3-5.1-5.1C.6 18.9 0 16.5 0 14s.6-4.9 1.9-7c1.3-2.1 3-3.8 5.1-5.1C9.1.6 11.5 0 14 0s4.9.6 7 1.9c2.1 1.3 3.8 3 5.1 5.1 1.3 2.1 1.9 4.5 1.9 7s-.6 4.9-1.9 7zM22.6 9c-.9-1.5-2.1-2.7-3.6-3.6-1.5-.9-3.2-1.3-5-1.3-1.8 0-3.5.4-5 1.3S6.3 7.5 5.4 9c-.9 1.5-1.3 3.2-1.3 5 0 1.8.4 3.5 1.3 5s2.1 2.7 3.6 3.6c1.5.9 3.2 1.3 5 1.3 1.8 0 3.5-.4 5-1.3s2.7-2.1 3.6-3.6c.9-1.5 1.3-3.2 1.3-5 0-1.8-.4-3.5-1.3-5zm-6.8 7.3H9.9c-.2 0-.3-.1-.4-.2-.1-.1-.2-.2-.2-.4v-1.2c0-.2.1-.3.2-.4.1 0 .2-.1.4-.1H14V7.6c0-.2.1-.3.2-.4.1-.1.2-.2.4-.2h1.2c.2 0 .3.1.4.2.1.1.2.2.2.4v8.2c0 .2-.1.3-.2.4-.1.1-.3.1-.4.1z"/></symbol><symbol viewBox="0 0 357 357" id="close" xmlns="http://www.w3.org/2000/svg"><path d="M357 35.7L321.3 0 178.5 142.8 35.7 0 0 35.7l142.8 142.8L0 321.3 35.7 357l142.8-142.8L321.3 357l35.7-35.7-142.8-142.8z"/></symbol><symbol viewBox="0 0 34 35" id="compas" xmlns="http://www.w3.org/2000/svg"><path fill-rule="evenodd" clip-rule="evenodd" d="M32.5 18.5c-.5 7.9-6.7 14.2-14.4 14.7V35h-1.9v-1.9c-7.7-.5-13.9-6.8-14.4-14.6H0v-1.9h1.8C2.3 8.7 8.4 2.4 16 1.9V0h1.9v1.8c7.8.4 14.1 6.8 14.6 14.7H34v1.9h-1.5zM17.1 3.3C9.5 3.3 3.2 9.6 3.2 17.5s6.3 14.2 13.9 14.2c7.7 0 13.9-6.4 13.9-14.2S24.8 3.3 17.1 3.3zm9.6 12.3h3v.7h-1.9v.4h1.8v.7h-1.8v.4h1.9v.7h-3v-2.9zm-16.5 9.8l4-10.1 9.6-5-4 10.1-9.6 5zm7-9.1c-.8 0-1.5.7-1.5 1.5s.7 1.5 1.5 1.5 1.5-.7 1.5-1.5-.7-1.5-1.5-1.5zm-1.3-9.9V8h-1.1V5.1h1.3l1.1 1.6V5.1h1.1V8h-1.2l-1.2-1.6zM6.7 19.1l-.4-1.6-.4 1.6H4.8L4 16.2h1.1l.3 1.8.4-1.8h.9l.5 1.8.4-1.8h1.1l-.8 2.9H6.7zM17 28.7c.1 0 .2.1.4.1s.3 0 .4-.1c.1 0 .1-.1.1-.2v-.1s-.1-.1-.2-.1l-1.3-.2c-.1 0-.3-.1-.4-.1-.1 0-.2-.1-.2-.2-.1-.1-.1-.1-.1-.2v-.3c0-.2 0-.3.1-.5l.3-.3c.1-.1.3-.1.5-.2h.6c.3 0 .6 0 .8.1.2 0 .4.1.6.2.1.1.3.2.3.3.1.1.1.3.1.4h-1.3v-.1l-.1-.1h-.4c-.2 0-.3 0-.3.1-.1 0-.1.1-.1.1v.1h.1l1.3.2c.3 0 .5.1.7.3.2.1.2.3.2.6 0 .4-.1.6-.4.8-.3.2-.7.3-1.4.3h-.6c-.2 0-.4-.1-.6-.1-.2-.1-.3-.2-.4-.3-.1-.1-.2-.3-.2-.5h1.3c.1-.1.2 0 .2 0z"/></symbol><symbol viewBox="0 0 50 47" id="contract" xmlns="http://www.w3.org/2000/svg"><path d="M31.7 25.2c0-.7-.6-1.4-1.4-1.4H7.2c-.8 0-1.4.6-1.4 1.4 0 .8.6 1.4 1.4 1.4h23.1c.8 0 1.4-.6 1.4-1.4zm-1.2-6.8h-13c-.8 0-1.4.6-1.4 1.4 0 .7.6 1.4 1.4 1.4h12.9c.8 0 1.4-.6 1.4-1.4 0-.8-.6-1.4-1.3-1.4z"/><path d="M34.8 41.2c0 1.7-1.4 3.1-3.1 3.1H5.8c-1.7 0-3.1-1.4-3.1-3.1V5.8c0-1.7 1.4-3.1 3.1-3.1H24v4.4c0 3.2 2.6 5.8 5.8 5.8h4.9v7.4c0-.1.1-.1.1-.2.1-.1.2-.2.2-.4.8-1.2 1.9-3.2 2.2-3.6.1-.1.1-.2.2-.3v-3.7c0-.4-.1-.7-.2-1-.1-.3-.3-.6-.6-.9L26.7.7c-.2-.2-.5-.4-.8-.5-.3-.1-.6-.2-1-.2H5.8C2.6 0 0 2.6 0 5.8v35.4C0 44.4 2.6 47 5.8 47h25.9c3.2 0 5.8-2.6 5.8-5.8v-6.8c-.9 1.2-1.8 2.4-2.7 3.5v3.3z"/><path d="M9.7 9c-1.2.5-2 1.3-2.1 2.7-.1 1.2.6 2 1.6 2.6.6.4 1.3.6 1.9.8.3.1.5.2.7.4.6.5.5 1.4-.2 1.7-.4.2-.8.2-1.2.2-.7-.1-1.3-.2-1.9-.5-.3-.2-.5-.1-.6.3-.1.3-.2.7-.3 1-.1.4-.1.6.4.7.5.3 1.1.4 1.7.5.5.1.5.1.5.6v.6c0 .3.1.4.4.4h1c.3 0 .4-.2.4-.4v-.9c0-.3.1-.5.4-.5.7-.2 1.2-.6 1.7-1.1 1.2-1.5.7-3.6-1-4.6-.5-.3-1.1-.5-1.7-.7-.3-.1-.6-.3-.9-.5-.6-.4-.5-1.1.2-1.4.2-.1.4-.1.6-.1.7-.1 1.5.1 2.1.4.3.2.5.1.6-.2.1-.4.2-.7.3-1.1.1-.2 0-.4-.3-.5-.6-.4-1-.6-1.5-.6-.6-.1-.6-.1-.6-.7 0-.9 0-.9-.9-.9h-.4c-.4 0-.5.1-.5.5v.5c.1.6.1.6-.4.8zm19.4 21.8c.2-.5.5-1 .7-1.5H7.2c-.8 0-1.4.6-1.4 1.4 0 .7.6 1.4 1.4 1.4h21.3c.2-.5.4-.9.6-1.3zM5.8 36.2c0 .7.6 1.4 1.4 1.4h19.1c.3-.9.6-1.8 1-2.7H7.2c-.8-.1-1.4.5-1.4 1.3zm43.7-20.5l-.8-.5-1.3-.7c.2-.5.4-1 .5-1.4 0-.2.1-.3.1-.5.2-1.1-.2-1.9-1.3-2.6-1-.6-1.7-.5-2.6.2-.6.5-1.1 1.1-1.5 1.7-1.6 2.2-3 4.6-4.5 7l-1.8 2.9c-1.9 3.2-3.7 6.5-5.3 9.9-1 2.3-2 4.5-2.7 6.9-.1.3-.2.7-.2 1 0 .4-.2.9.2 1.1.4.2.8-.1 1.1-.3.9-.6 1.6-1.4 2.3-2.2 3.5-3.9 6.4-8.3 9.3-12.7l2.2-3.6c1-1.6 2-3.2 2.9-4.9.2-.3.4-.6.5-.9l1.2.7-5.7 9.8c-.4.7-.1 1.7.9 2 .1 0 .2 0 .2-.1L49.9 17c.2-.5.1-1.1-.4-1.3z"/></symbol><symbol viewBox="0 0 35 33" id="hand" xmlns="http://www.w3.org/2000/svg"><path fill-rule="evenodd" clip-rule="evenodd" d="M35 20.2c-.1.9-.6 1.7-1.3 2.2l-9.3 7.2c-1 .7-2.1 1.2-3.3 1.2H6.6v1.1c0 .6-.5 1.1-1.1 1.1H1.1C.5 33 0 32.5 0 31.9V16.5c0-.6.5-1.1 1.1-1.1h4.4c.6 0 1.1.5 1.1 1.1v1.1h12c.6 0 1.1.5 1.1 1.1 0 2.2-.9 4.1-2.3 5.5h1.9c1 0 1.9-.3 2.7-.9l7.8-6.1c.7-.5 1.5-.8 2.4-.7.9.1 1.7.6 2.2 1.3.4.7.7 1.5.6 2.4zM4.4 17.6H2.2v13.2h2.2V17.6zm28.2 1.5c-.2-.2-.5-.4-.7-.4-.3 0-.6 0-.8.2L23.3 25c-1.1.9-2.6 1.4-4 1.4H12c-.6 0-1.1-.5-1.1-1.1 0-.6.5-1.1 1.1-1.1 2.6 0 4.9-1.9 5.4-4.4H6.6v8.8h14.6c.7 0 1.4-.2 2-.7l9.2-7.2c.2-.2.4-.5.4-.7 0-.4 0-.6-.2-.9zm-4.2-7c0 1.8-1.5 3.3-3.3 3.3-1.8 0-3.3-1.5-3.3-3.3 0-1.8 1.5-3.3 3.3-3.3 1.9 0 3.3 1.5 3.3 3.3zm-4.3 0c0 .6.5 1.1 1.1 1.1.6 0 1.1-.5 1.1-1.1 0-.6-.5-1.1-1.1-1.1-.6 0-1.1.5-1.1 1.1zM17.2 15c-.2.3-.5.4-.8.4-.2 0-.5-.1-.7-.3-.5-.4-.5-1.1-.1-1.5L26.5.4c.4-.5 1.1-.5 1.5-.1.5.4.5 1.1.1 1.5L17.2 15zm1.4-8.4c-1.8 0-3.3-1.5-3.3-3.3 0-1.8 1.5-3.3 3.3-3.3s3.3 1.5 3.3 3.3c0 1.8-1.5 3.3-3.3 3.3zm0-4.4c-.6 0-1.1.5-1.1 1.1s.5 1.1 1.1 1.1c.6 0 1.1-.5 1.1-1.1s-.5-1.1-1.1-1.1z"/></symbol><symbol viewBox="-295 303 13 188" id="line-circle" xmlns="http://www.w3.org/2000/svg"><g transform="translate(-431 -770)"><defs><circle id="ka" cx="142.5" cy="1254.5" r="6.5"/></defs><clipPath id="kb"><use xlink:href="#ka" overflow="visible"/></clipPath><g clip-path="url(#kb)"><path d="M142.5 1248c3.6 0 6.5 2.9 6.5 6.5s-2.9 6.5-6.5 6.5-6.5-2.9-6.5-6.5 2.9-6.5 6.5-6.5z"/></g></g><g transform="translate(-431 -770)"><defs><path id="kc" d="M141 1073h3v177h-3z"/></defs><clipPath id="kd"><use xlink:href="#kc" overflow="visible"/></clipPath><g clip-path="url(#kd)"><path d="M144 1250h-3v-177h3v177z"/></g></g></symbol><symbol viewBox="0 0 24 30" id="medal" xmlns="http://www.w3.org/2000/svg"><path fill-rule="evenodd" clip-rule="evenodd" d="M23.9 4l-8.1 13.6c1.8 1.2 3 3.3 3 5.6 0 3.7-3 6.8-6.8 6.8-3.7 0-6.8-3-6.8-6.8 0-2.3 1.2-4.4 2.9-5.6L.1 4c-.2-.3-.1-.7.2-1L4.2.1h15.5l4 2.9c.3.3.4.7.2 1zM10.3 26.4H14c.4 0 .7-.3.7-.7 0-.4-.3-.7-.7-.7h-1.1v-4.7c0-.3-.2-.6-.5-.7-.3-.1-.6-.1-.8.2l-1.9 1.9c-.3.3-.3.7 0 1 .3.3.7.3 1 0l.6-.6V25h-1.1c-.4 0-.7.3-.7.7.1.4.4.7.8.7zM4.4 1.8L1.7 3.9l7.6 12.8 1.9-3.3L4.4 1.8zm3.5 3.1L12 12l4.1-7.1H7.9zm11.6-3.1l-6.9 12-1.6 2.7c.3 0 .7-.1 1-.1.9 0 1.8.2 2.5.5l7.8-13.1-2.8-2z"/></symbol><symbol viewBox="0 0 68 44" id="money" xmlns="http://www.w3.org/2000/svg"><path d="M54.5 13.9c0-4.5-3.6-8.1-8.1-8.1s-8.1 3.6-8.1 8.1 3.6 8.1 8.1 8.1 8.1-3.6 8.1-8.1zM46 19.4c-.2 0-.3-.1-.3-.4v-.5c0-.4 0-.4-.4-.5-.5-.1-.9-.2-1.4-.4-.3-.2-.4-.3-.3-.6.1-.3.1-.5.2-.8.1-.3.2-.4.5-.2.5.3 1 .4 1.5.5.3 0 .7 0 1-.1.6-.3.7-1 .2-1.4-.2-.1-.4-.3-.6-.3-.5-.2-1.1-.4-1.6-.7-.8-.5-1.3-1.2-1.3-2.1.1-1.1.7-1.8 1.7-2.2.4-.2.4-.1.4-.6v-.4c0-.3.1-.4.4-.4h.3c.7 0 .7 0 .7.7 0 .5 0 .5.5.6.4.1.7.2 1.1.3.2.1.3.2.2.4l-.3.9c-.1.3-.2.3-.4.2-.5-.3-1.1-.4-1.7-.3-.2 0-.3 0-.5.1-.5.2-.6.8-.2 1.2.2.2.5.3.7.4.5.2.9.4 1.4.6 1.4.8 1.8 2.5.8 3.7-.3.4-.8.7-1.4.9-.1 0-.2.1-.2.4v.7c0 .2-.1.3-.3.3H46zM34.6 12c1.2 0 2.2 1 2.2 2.3 0 1.2-1 2.3-2.2 2.3-1.2 0-2.2-1-2.2-2.3 0-1.3 1-2.3 2.2-2.3zm23.6 0c1.2 0 2.2 1 2.2 2.3 0 1.2-1 2.3-2.2 2.3-1.2 0-2.2-1-2.2-2.3 0-1.3 1-2.3 2.2-2.3z"/><path d="M64.3.6H29c-2 0-3.7 1.7-3.7 3.7v12.4h3.1V8.3c.3.1.6.1.9.1 2.1 0 3.7-1.7 3.7-3.8 0-.3 0-.6-.1-.9h27.5c0 .2-.1.5-.1.7 0 2.1 1.7 3.8 3.7 3.8.2 0 .4 0 .7-.1v11.4c-.2 0-.4-.1-.7-.1-2.1 0-3.7 1.7-3.7 3.8 0 .2 0 .5.1.7H40.8v3.2h23.5c2 0 3.7-1.7 3.7-3.7V4.3C68 2.2 66.4.6 64.3.6zM3.8 18.7c2 .8 4.7 1.2 7.6 1.2 1.5 0 3-.1 4.3-.4.7-.6 1.7-1.1 2.9-1.5 1.2-.4 2.6-.8 4.1-1V5c0-1.1-.7-2.7-3.8-3.9-2-.8-4.7-1.2-7.6-1.2-2.8.1-5.5.5-7.5 1.3C.7 2.4 0 3.9 0 5v25c0 1.1.7 2.7 3.8 3.9 2 .8 4.7 1.2 7.6 1.2.6 0 1.2 0 1.8-.1v-2.5c-.6 0-1.2.1-1.8.1-2.6 0-4.9-.4-6.7-1-1.7-.7-2.1-1.3-2.1-1.5v-1.6c.4.2.8.4 1.3.6 2 .8 4.7 1.2 7.6 1.2.6 0 1.2 0 1.8-.1v-2.5c-.6 0-1.2.1-1.8.1-2.6 0-4.9-.4-6.7-1-1.7-.7-2.1-1.3-2.1-1.5v-1.6c.4.2.8.4 1.3.6 2 .8 4.7 1.2 7.6 1.2.6 0 1.2 0 1.8-.1v-.6c0-.6.1-1.3.4-2.1-.7.1-1.5.1-2.2.1-2.6 0-4.9-.4-6.7-1-1.7-.7-2.1-1.3-2.1-1.5v-1.6c.1-.4.5-.2 1 0zm.8-15.2c1.8-.7 4.2-1 6.7-1 2.6 0 4.9.4 6.7 1 1.7.6 2.1 1.3 2.1 1.5 0 .2-.4.8-2.1 1.5-1.8.7-4.2 1-6.7 1-2.6 0-4.9-.4-6.7-1C2.9 5.9 2.5 5.2 2.5 5c0-.1.4-.8 2.1-1.5zM2.5 8.3c.4.2.8.4 1.3.6 2 .8 4.7 1.2 7.6 1.2 2.8 0 5.5-.4 7.6-1.2.5-.2.9-.4 1.3-.6v1.6c0 .2-.4.8-2.1 1.5-1.8.7-4.2 1-6.7 1-2.6 0-4.9-.4-6.7-1-1.7-.7-2.1-1.3-2.1-1.5l-.2-1.6zm0 4.9c.4.2.8.4 1.3.6 2 .8 4.7 1.2 7.6 1.2 2.8 0 5.5-.4 7.6-1.2.5-.2.9-.4 1.3-.6v1.6c0 .2-.4.8-2.1 1.5-1.8.7-4.2 1-6.7 1-2.6 0-4.9-.4-6.7-1-1.7-.7-2.1-1.3-2.1-1.5l-.2-1.6z"/><path d="M34.6 20.4c-2-.8-4.7-1.2-7.6-1.2-2.8 0-5.5.4-7.6 1.2-3.1 1.2-3.8 2.7-3.8 3.9v14.8c0 1.1.7 2.7 3.8 3.9 2 .8 4.7 1.2 7.6 1.2 2.8 0 5.5-.4 7.6-1.2 3.1-1.2 3.8-2.7 3.8-3.9v-15c-.1-1-.7-2.6-3.8-3.7zm-14.3 2.3c1.8-.7 4.2-1 6.7-1 2.6 0 4.9.4 6.7 1 1.7.6 2.1 1.3 2.1 1.5 0 .2-.4.8-2.1 1.5-1.8.7-4.2 1-6.7 1-2.6 0-4.9-.4-6.7-1-1.7-.7-2.1-1.3-2.1-1.5-.1-.1.3-.8 2.1-1.5zm13.4 17.7c-1.8.7-4.2 1-6.7 1-2.6 0-4.9-.4-6.7-1-1.7-.7-2.1-1.3-2.1-1.5v-1.6c.4.2.8.4 1.3.6 2 .8 4.7 1.2 7.6 1.2 2.8 0 5.5-.4 7.6-1.2.5-.2.9-.4 1.3-.6v1.6c-.2.2-.6.8-2.3 1.5zm2.1-6.4c0 .2-.4.9-2.1 1.5-1.8.7-4.2 1-6.7 1-2.6 0-4.9-.4-6.7-1-1.7-.7-2.1-1.3-2.1-1.5v-1.6c.4.2.8.4 1.3.6 2 .8 4.7 1.2 7.6 1.2 2.8 0 5.5-.4 7.6-1.2.5-.2.9-.4 1.3-.6l-.2 1.6zm0-4.9c0 .2-.4.9-2.1 1.5-1.8.7-4.2 1-6.7 1-2.6 0-4.9-.4-6.7-1-1.7-.7-2.1-1.3-2.1-1.5v-1.6c.4.2.8.4 1.3.6 2 .8 4.7 1.2 7.6 1.2 2.8 0 5.5-.4 7.6-1.2.5-.2.9-.4 1.3-.6l-.2 1.6z"/></symbol><symbol viewBox="0 0 26 26" id="phone" xmlns="http://www.w3.org/2000/svg"><path fill-rule="evenodd" clip-rule="evenodd" d="M24.7 20.7l-2.2 2.2-5.8-5.8c.1-.1.3-.2.4-.3l.9-.9 1-1c.3-.3.9-.3 1.3 0l4.5 4.5c.3.4.3.9-.1 1.3zm-11.4 3.1c-1.3-.6-2.5-1.5-3.7-2.4-1.1-.9-2.2-1.8-3.2-2.8-1-1-2-2.1-2.8-3.2-.9-1.1-1.7-2.4-2.4-3.7-1.5-3.1-1.7-6.6-.3-8l5.9 5.9c-.3.9-.2 2.1.4 2.8.8 1 1.7 1.9 2.6 2.7.9.9 1.8 1.7 2.7 2.6.8.7 1.9.8 2.8.4l5.9 5.9c-1.3 1.4-4.8 1.3-7.9-.2zM9.1 7l-.9.9c-.2.1-.3.2-.4.4L2.1 2.5C2.8 1.7 3.6 1 4.3.3c.3-.3.9-.4 1.2 0L10 4.8c.3.3.3.9 0 1.3l-.9.9z"/></symbol><symbol viewBox="0 0 31 31" id="prize" xmlns="http://www.w3.org/2000/svg"><path fill-rule="evenodd" clip-rule="evenodd" d="M30.8 25.8c-.2.3-.6.4-1 .3l-5.7-1.5-1.5 5.7c-.1.4-.4.7-.8.7h-.1c-.3 0-.7-.2-.8-.5l-5.3-9.2-5.3 9.2c-.3.3-.6.5-.9.5h-.1c-.4-.1-.7-.3-.8-.7L7 24.6l-5.7 1.5c-.4.1-.8 0-1-.3-.3-.3-.4-.8-.2-1.1l5.6-9.8c-.6-1.3-.9-2.8-.9-4.3C4.8 4.8 9.6 0 15.5 0s10.7 4.8 10.7 10.7c0 1.5-.3 3-.9 4.3l5.6 9.8c.2.2.1.7-.1 1zM3 23.6l4.4-1.2c.2-.1.5 0 .7.1.2.1.4.3.5.6l1.2 4.4 3.7-6.4c-2.7-.5-5-2.1-6.5-4.2l-4 6.7zM15.5 1.9c-4.8 0-8.7 3.9-8.7 8.7 0 4.8 3.9 8.7 8.7 8.7 4.8 0 8.7-3.9 8.7-8.7 0-4.8-3.9-8.7-8.7-8.7zm8.6 15c-1.5 2.1-3.9 3.7-6.5 4.2l3.7 6.4 1.2-4.4c.1-.2.2-.5.5-.6.2-.1.5-.2.7-.1l4.4 1.2-4-6.7zm-4.8-5.4l.2 3c0 .3-.1.7-.4.9-.2.1-.4.2-.6.2-.1 0-.3 0-.4-.1l-2.6-1.1-2.6 1.1c-.3.1-.7.1-.9-.1-.3-.2-.4-.5-.4-.9l.2-3-1.9-2.4c-.2-.2-.3-.6-.2-.9.1-.3.4-.5.7-.6l2.7-.7 1.5-2.5c.3-.6 1.3-.6 1.7 0l1.5 2.5 2.7.7c.3.1.6.3.7.6.1.3 0 .7-.2.9l-1.7 2.4zM17 8.7c-.2-.1-.5-.2-.6-.4l-.9-1.5-.9 1.5c-.1.2-.3.4-.6.4l-1.7.4 1.1 1.4c.2.2.2.4.2.7V13l1.5-.7c.1-.1.3-.1.4-.1.1 0 .3 0 .4.1l1.5.7-.1-1.8c0-.2.1-.5.2-.7l1.1-1.4-1.6-.4z"/></symbol><symbol viewBox="0 0 92 92" id="question" xmlns="http://www.w3.org/2000/svg"><path d="M45.386.004C19.983.344-.333 21.215.005 46.619c.34 25.393 21.209 45.715 46.611 45.377 25.398-.342 45.718-21.213 45.38-46.615-.34-25.395-21.21-45.716-46.61-45.377zM45.25 74l-.254-.004c-3.912-.116-6.67-2.998-6.559-6.852.109-3.788 2.934-6.538 6.717-6.538l.227.004c4.021.119 6.748 2.972 6.635 6.937C51.904 71.346 49.123 74 45.25 74zm16.455-32.659c-.92 1.307-2.943 2.93-5.492 4.916l-2.807 1.938c-1.541 1.198-2.471 2.325-2.82 3.434-.275.873-.41 1.104-.434 2.88l-.004.451H39.43l.031-.907c.131-3.728.223-5.921 1.768-7.733 2.424-2.846 7.771-6.289 7.998-6.435.766-.577 1.412-1.234 1.893-1.936 1.125-1.551 1.623-2.772 1.623-3.972a7.74 7.74 0 0 0-1.471-4.576c-.939-1.323-2.723-1.993-5.303-1.993-2.559 0-4.311.812-5.359 2.478-1.078 1.713-1.623 3.512-1.623 5.35v.457H27.936l.02-.477c.285-6.769 2.701-11.643 7.178-14.487C37.947 18.918 41.447 18 45.531 18c5.346 0 9.859 1.299 13.412 3.861 3.6 2.596 5.426 6.484 5.426 11.556 0 2.837-.896 5.502-2.664 7.924z"/></symbol><symbol viewBox="0 0 52 45" id="request" xmlns="http://www.w3.org/2000/svg"><path d="M26 17.5c2.8 0 5.1-2.3 5.1-5.1S28.8 7.3 26 7.3s-5.1 2.3-5.1 5.1 2.3 5.1 5.1 5.1zm0-6.9c1 0 1.8.8 1.8 1.8s-.8 1.8-1.8 1.8-1.8-.8-1.8-1.8.8-1.8 1.8-1.8zm0 7.3c-5 0-9 4-9 9 0 .9.7 1.6 1.6 1.6h14.7c.9 0 1.6-.7 1.6-1.6.1-5-3.9-9-8.9-9zm-5.5 7.4a5.7 5.7 0 0 1 5.5-4.1c2.6 0 4.8 1.7 5.5 4.1h-11z"/><path d="M49.2 0H36c-1.4 0-2.5 1-2.7 2.3H18.7C18.5 1 17.3 0 16 0H2.8C1.2 0 0 1.2 0 2.8V19c0 1.5 1.2 2.8 2.8 2.8h2.9l2.2 3.9c.6 1.1 2.2 1.1 2.8 0l2-3.4V30c0 1.8 1.5 3.3 3.3 3.3h5l3.6 6.2c.6 1.1 2.2 1.1 2.8 0l3.6-6.2h4.9c1.8 0 3.3-1.5 3.3-3.3v-7.8l2 3.4c.6 1.1 2.2 1.1 2.8 0l2.2-3.9h2.9c1.5 0 2.8-1.2 2.8-2.8V2.8C52 1.2 50.8 0 49.2 0zM12.8 18.4c-1.9 0-1.7.1-3.4 3.1-2-3.5-1-3.1-6.1-3.1V3.3h10.5c-1.4 1.4-1 2.3-1 15.1zm23.1 11.7h-5.8c-1.2 0-1.3.6-4.1 5.4-2.8-4.8-2.8-5.4-4.1-5.4h-5.8V5.7H36c0 1.1 0 23.4-.1 24.4.1 0 0 0 0 0zm12.8-11.7c-5 0-4-.5-6.1 3.1-1.7-3-1.5-3.1-3.4-3.1 0-13.4.4-13.8-1-15.2h10.5v15.2zm-2.9 23.3H6.2c-.9 0-1.6.7-1.6 1.6 0 .9.7 1.6 1.6 1.6h39.6c.9 0 1.6-.7 1.6-1.6 0-.9-.7-1.6-1.6-1.6z"/></symbol><symbol viewBox="0 0 29 35" id="timer" xmlns="http://www.w3.org/2000/svg"><path d="M26.1 10.3l.9-1.2c.5-.6.4-1.5-.3-2l-2.4-1.8c-.6-.5-1.5-.4-2 .3l-.9 1.2c1.5.7 2.9 1.7 4.1 2.9l.6.6zM14.5 5.1c.6 0 1.3 0 1.9.1V3.6h1.1c.9 0 1.5-.6 1.5-1.4v-.8c0-.8-.6-1.4-1.4-1.4h-6.1c-.9 0-1.5.6-1.5 1.4v.7c0 .8.6 1.4 1.5 1.4h1.1v1.7c.6 0 1.3-.1 1.9-.1zm0 29.9c8 0 14.5-6.5 14.5-14.4 0-3.6-1.3-6.9-3.6-9.4-1.3-1.5-2.9-2.7-4.7-3.5-1.3-.6-2.8-1.1-4.4-1.3-.6-.1-1.3-.1-1.9-.1s-1.3 0-1.9.1C5.5 7.2 0 13.3 0 20.6 0 28.5 6.5 35 14.5 35zm4-24.4c1.9.7 3.5 2 4.7 3.5 1.1 1.4 1.8 3.1 2.1 4.9.1.5.1 1 .1 1.6h-11V9.8h.1c.5 0 1 0 1.5.1.9.1 1.7.3 2.5.7z"/></symbol><symbol viewBox="0 0 512.019 512.019" id="viber" xmlns="http://www.w3.org/2000/svg"><path d="M255.994 41.372c5.88 4.412 11.025 4.89 26.402 5.76 45.056 2.586 73.626 12.211 105.404 35.541 38.903 28.459 63.309 68.156 72.559 117.99 2.381 12.902 3.558 23.851 4.36 40.354.486 11.068.87 15.36 3.388 20.207 3.55 6.613 10.428 11.008 18.406 11.75.785.068 1.57.102 2.347.102 7.1 0 13.688-3.004 17.894-8.235 5.589-6.81 5.581-13.158 5.035-26.829-1.604-42.342-10.863-80.384-27.52-113.067-11.878-23.253-23.219-38.485-43.358-58.231-21.478-20.881-38.033-32.563-63.309-44.638C350.825 9.295 331.881 5.25 304.139 1.863c-5.598-.64-16.137-1.476-23.45-1.715-13.935-.461-19.379-.085-25.813 5.632-4.932 4.343-7.62 10.94-7.398 18.116.221 7.125 3.31 13.465 8.516 17.476z"/><path d="M396.436 224.422c0 11.989.99 23.245 12.808 29.065 3.243 1.681 7.467 2.526 11.588 2.526 3.661 0 7.228-.674 9.95-2.039 4.779-2.458 9.6-7.646 11.486-12.339 2.398-6.05 1.306-27.742.623-33.86-3.2-27.332-12.698-53.137-27.46-74.615-26.743-38.852-66.816-62.345-119.083-69.828-17.724-2.611-30.891-3.533-38.639 8.294-6.084 8.986-5.308 20.446 1.877 28.476 5.726 6.494 13.926 7.962 21.18 8.542 20.77 1.638 44.032 8.439 59.281 17.323l.026.008c17.741 10.274 32.427 25.208 42.487 43.196 8.816 15.733 13.876 35.872 13.876 55.251z"/><path d="M350.977 151.133c-11.674-10.692-25.353-17.391-43.017-21.077-4.045-.853-10.906-1.596-15.172-1.835-7.356-.452-10.385-.375-15.616 2.167-6.323 3.174-10.752 9.062-12.169 16.137-1.408 7.031.393 14.106 5.001 19.482 5.325 6.084 10.778 7.603 21.777 8.909 18.381 2.202 28.732 8.388 34.586 20.659 2.961 6.263 4.642 13.124 5.615 22.989 1.007 9.242 2.816 15.172 9.395 20.036 4.139 3.123 9.378 4.668 14.566 4.668 5.675 0 11.298-1.852 15.403-5.513l.051-.034c8.482-7.671 8.841-17.186 6.545-32.034-3.558-23.783-11.861-40.611-26.965-54.554z"/><path d="M511.965 412.822c-.418-9.293-3.61-17.604-9.566-24.781-5.751-6.784-42.487-35.831-58.88-47.053-12.749-8.678-32.896-20.898-42.317-25.668-13.918-6.921-27.913-8.132-41.685-3.567-3.012 1.007-5.163 1.903-7.185 2.961-6.972 3.661-12.092 9.429-22.042 21.666-10.658 12.868-12.877 15.369-12.851 15.369-1.007.606-2.611 1.459-4.557 2.347-7.927 3.61-20.924.64-42.061-9.66-17.835-8.627-33.852-19.703-51.942-35.9-15.411-13.73-30.908-31.539-39.509-45.355-11.947-19.166-19.174-41.344-19.26-51.644 0-4.011 1.758-9.771 3.661-12.945l.836-.862a54.899 54.899 0 0 1 2.039-1.886c2.97-2.671 7.27-6.246 11.75-9.788 19.661-15.488 25.89-21.76 29.218-33.408 3.217-10.769.393-24.03-8.892-41.719-13.833-26.394-57.694-82.569-75.998-94.413-3.012-1.886-7.97-4.429-11.477-5.606-7.509-2.654-18.295-3.558-25.003-2.133-9.284 1.903-19.473 7.748-41.958 24.081-12.321 9.02-31.316 26.658-36.471 35.089-12.16 20.42-9.062 38.135 1.963 67.806 10.505 28.314 23.979 56.815 39.996 84.642l.836 1.408a615.617 615.617 0 0 0 9.993 16.7l.896 1.408c3.439 5.47 6.921 10.931 10.564 16.367l5.743 8.354c2.142 3.123 4.275 6.238 6.485 9.336a711.918 711.918 0 0 0 13.466 18.176c49.399 64.324 106.308 115.968 173.969 157.858l2.773 1.741c9.822 6.016 20.275 12.032 31.061 17.869l4.215 2.27c11.162 5.939 21.768 11.264 32.427 16.256l3.319 1.51c12.587 5.828 24.098 10.837 35.174 15.3 13.406 5.41 19.61 7.066 29.03 7.066 1.673 0 3.456-.051 5.402-.145 6.076-.29 11.537-1.195 16.708-2.773 7.262-2.202 14.532-5.897 22.852-11.64a162.513 162.513 0 0 0 4.463-3.166c1.843-1.357 3.806-3.021 5.794-4.736 9.481-8.201 20.361-20.113 29.124-31.863 4.676-6.272 10.889-15.377 13.986-23.194 2.901-7.313 4.215-14.609 3.908-21.666v-.009z"/></symbol><symbol viewBox="0 0 60 60" id="whatsapp" xmlns="http://www.w3.org/2000/svg"><path d="M30.5 0C14.233 0 1 13.233 1 29.5a29.47 29.47 0 0 0 3.896 14.65L.051 58.684a1 1 0 0 0 1.203 1.283l15.867-4.175A29.578 29.578 0 0 0 30.5 59C46.767 59 60 45.767 60 29.5S46.767 0 30.5 0zm18.408 42.895l-1.758 1.759C44.93 46.874 42.453 48 39.79 48c-3.59 0-7.461-2.05-11.503-6.093L18.093 31.714c-3.188-3.188-5.147-6.285-5.823-9.206-.82-3.547.215-6.796 3.077-9.657l1.759-1.759c1.131-1.131 2.96-1.409 4.377-.659 2.662 1.409 5.42 6.025 5.726 6.547.552.967.721 1.967.483 2.824a2.61 2.61 0 0 1-1.188 1.552c-.808.676-1.755 1.518-1.922 1.732-1.016 1.499-.9 2.65.409 3.96l7.962 7.962c1.32 1.321 2.451 1.43 3.974.398.201-.157 1.042-1.104 1.718-1.912.505-.835 1.332-1.292 2.338-1.292.659 0 1.36.2 2.027.58.532.313 5.149 3.071 6.557 5.732a3.707 3.707 0 0 1-.659 4.379z"/></symbol></svg>