<?xml version="1.0" encoding="utf-8"?>
<!-- Generator: Adobe Illustrator 18.1.1, SVG Export Plug-In . SVG Version: 6.00 Build 0)  -->
<svg version="1.1" id="Layer_1" xmlns="http://www.w3.org/2000/svg" xmlns:xlink="http://www.w3.org/1999/xlink" x="0px" y="0px"
	 viewBox="0 0 28 28" enable-background="new 0 0 28 28" xml:space="preserve">
<path d="M23.4,4.2c0.3,0,0.5-0.3,0.5-0.7V0.7c0-0.4-0.2-0.7-0.5-0.7c-0.3,0-0.5,0.3-0.5,0.7v2.8C22.9,3.9,23.1,4.2,23.4,4.2z"/>
<path d="M13.8,4.2c0.3,0,0.5-0.3,0.5-0.7V0.7c0-0.4-0.2-0.7-0.5-0.7c-0.3,0-0.5,0.3-0.5,0.7v2.8C13.3,3.9,13.5,4.2,13.8,4.2z"/>
<path d="M4.4,4.2c0.3,0,0.5-0.3,0.5-0.7V0.7C4.9,0.3,4.7,0,4.4,0C4.1,0,3.9,0.3,3.9,0.7v2.8C3.9,3.9,4.1,4.2,4.4,4.2z"/>
<path d="M28,4c0-1.2-1-2.2-2.1-2.2h-1.4v1.7c0,0.7-0.5,1.3-1.1,1.3c-0.6,0-1.1-0.6-1.1-1.3V1.8h-7.4v1.7c0,0.7-0.5,1.3-1.1,1.3
	c-0.6,0-1.1-0.6-1.1-1.3V1.8H5.5v1.7c0,0.7-0.5,1.3-1.1,1.3c-0.6,0-1.1-0.6-1.1-1.3V1.8H2.1C1,1.8,0,2.8,0,4v2.7h0C0,6.8,0,6.9,0,7
	v18.8C0,27,1,28,2.1,28h23.8c1.2,0,2.1-1,2.1-2.1V7c0-0.1,0-0.2,0-0.3h0V4z M26.1,24.4c0,1.1-0.8,1.9-1.9,1.9H3.5
	c-1,0-1.9-0.9-1.9-1.9V7.2c0-0.2,0-0.4,0.1-0.5H26c0,0.2,0.1,0.3,0.1,0.5L26.1,24.4z"/>
<path d="M3.8,12l0.5,2.3l2.6-1.2h0v10.5H10V10.4H7.4L3.8,12z"/>
<path d="M19,21l1.3-1c2-1.7,3.6-3.5,3.6-5.7c0-2.4-1.7-4.1-4.8-4.1c-1.8,0-3.4,0.6-4.4,1.4l0.9,2.2c0.7-0.5,1.7-1.1,2.9-1.1
	c1.6,0,2.2,0.9,2.2,1.9c0,1.5-1.5,3-4.5,5.6l-1.7,1.5v1.9h9.6v-2.5L19,21L19,21L19,21z"/>
</svg>
