<?xml version="1.0" encoding="utf-8"?>
<!-- Generator: Adobe Illustrator 18.1.1, SVG Export Plug-In . SVG Version: 6.00 Build 0)  -->
<svg version="1.1" id="Layer_1" xmlns="http://www.w3.org/2000/svg" xmlns:xlink="http://www.w3.org/1999/xlink" x="0px" y="0px"
	 viewBox="0 0 57 40" enable-background="new 0 0 57 40" xml:space="preserve">
<path d="M42.7,22.9h-2.9c-0.5,0-1,0.4-1,1c0,0.5,0.4,1,1,1h2.9c0.5,0,1-0.4,1-1C43.7,23.3,43.3,22.9,42.7,22.9z"/>
<path d="M44.6,32.4v1.9l1.9,0v-1.9H44.6z"/>
<path d="M10.4,32.4v1.9l1.9,0v-1.9H10.4z"/>
<path d="M57,24.2c0-0.1,0-0.3-0.1-0.4c0,0,0-0.1,0-0.1v0C56.4,21,54.1,19,51.3,19h-1.9v-2.9v-3.1c0-3-2.4-5.4-5.4-5.4h-7.9V3.8
	c0-2.1-1.7-3.8-3.8-3.8H3.8C1.7,0,0,1.7,0,3.8v23.8v3.8c0,0.5,0.4,1,0.9,1h3.9c0,0.3-0.1,0.6-0.1,1c0,3.7,3,6.7,6.7,6.7h11.4
	c0.5,0,1-0.4,1-1c0-0.5-0.4-1-1-1H16c1.2-1.2,2-2.9,2-4.8c0-0.3,0-0.6-0.1-1h17.2H39c0,0.3-0.1,0.6-0.1,1c0,1.9,0.8,3.6,2,4.8h-6.8
	c-0.5,0-1,0.4-1,1c0,0.5,0.4,1,1,1H56c0.5,0,1-0.4,1-1c0-0.5-0.4-1-1-1h-5.8c1.2-1.2,2-2.9,2-4.8c0-0.3,0-0.6-0.1-1H56
	c0.5,0,1-0.4,1-1v-3.8v-2.9C57,24.6,57,24.4,57,24.2z M6.7,28.6c-0.3,0.3-0.5,0.5-0.7,0.8c0,0,0,0,0,0.1c-0.2,0.3-0.4,0.6-0.6,1
	c0,0,0,0,0,0H1.9v-1.9L6.7,28.6C6.8,28.6,6.8,28.6,6.7,28.6z M14.2,34.3c0,1-0.8,1.9-1.9,1.9h-1.9c-1,0-1.9-0.8-1.9-1.9v-1.9
	c0-1,0.8-1.9,1.9-1.9h1.9c1,0,1.9,0.8,1.9,1.9V34.3z M9.5,23.8c-0.5,0-0.9-0.4-0.9-1V5.7c0-0.5,0.4-1,0.9-1h5.7h5.7h5.7
	c0.5,0,1,0.4,1,1v17.1c0,0.5-0.4,1-1,1H9.5z M34.2,30.5H17.4c0,0,0,0,0,0c-0.2-0.3-0.3-0.7-0.6-1c0,0,0,0,0-0.1
	c-0.2-0.3-0.5-0.6-0.7-0.8c0,0,0,0,0,0h18.2V30.5z M36.1,9.5H44c1.4,0,2.5,0.8,3.1,1.9h-8.1c-0.5,0-0.9,0.4-0.9,1v3.8
	c0,0.5,0.4,1,0.9,1h8.6V19H36.1V9.5z M48.4,34.3c0,1-0.8,1.9-1.9,1.9h-1.9c-1,0-1.9-0.8-1.9-1.9v-1.9c0-1,0.8-1.9,1.9-1.9h1.9
	c1,0,1.9,0.8,1.9,1.9V34.3z M55.1,30.5h-3.5c0,0,0,0,0,0c-0.3-0.5-0.6-1-1-1.5c0,0-0.1-0.1-0.1-0.1c-0.2-0.2-0.4-0.4-0.6-0.6
	c0,0,0,0,0,0c-0.2-0.2-0.5-0.4-0.7-0.5c0,0-0.1,0-0.1-0.1c-0.2-0.1-0.5-0.3-0.7-0.4c0,0-0.1,0-0.1,0c-0.3-0.1-0.5-0.2-0.8-0.3
	c0,0-0.1,0-0.1,0c-0.2-0.1-0.5-0.1-0.7-0.2c-0.1,0-0.1,0-0.2,0c-0.3,0-0.6-0.1-0.9-0.1c-0.3,0-0.6,0-0.9,0.1c-0.1,0-0.1,0-0.2,0
	c-0.3,0-0.5,0.1-0.7,0.2c0,0-0.1,0-0.1,0c-0.3,0.1-0.6,0.2-0.8,0.3c0,0-0.1,0-0.1,0c-0.2,0.1-0.5,0.2-0.7,0.4c0,0-0.1,0-0.1,0.1
	c-0.2,0.2-0.5,0.3-0.7,0.5c0,0,0,0,0,0c-0.2,0.2-0.4,0.4-0.6,0.6c0,0-0.1,0.1-0.1,0.1c-0.4,0.4-0.7,0.9-1,1.5c0,0,0,0,0,0h-3.5v-2.9
	V21h12.3h2.8c1.4,0,2.6,0.8,3.3,1.9h-2.3c-0.5,0-1,0.4-1,1v3.8c0,0.5,0.4,1,1,1h2.8V30.5L55.1,30.5z"/>
<path d="M4.7,38.1H0.9c-0.5,0-0.9,0.4-0.9,1c0,0.5,0.4,1,0.9,1h3.8c0.5,0,0.9-0.4,0.9-1C5.7,38.5,5.3,38.1,4.7,38.1z"/>
<path d="M30.4,38.1h-3.8c-0.5,0-0.9,0.4-0.9,1c0,0.5,0.4,1,0.9,1h3.8c0.5,0,0.9-0.4,0.9-1C31.3,38.5,30.9,38.1,30.4,38.1z"/>
<path d="M16.1,6.7v4.9l1.4-0.9c0.2-0.1,0.3-0.2,0.5-0.2c0.2,0,0.4,0.1,0.5,0.2l1.4,0.9V6.7H16.1z"/>
<path d="M21.8,6.7v6.7c0,0.4-0.2,0.7-0.5,0.8c-0.1,0.1-0.3,0.1-0.4,0.1c-0.2,0-0.4-0.1-0.5-0.2L18,12.6l-2.3,1.6
	c-0.3,0.2-0.7,0.2-1,0c-0.3-0.2-0.5-0.5-0.5-0.8V6.7h-3.8v15.2h15.2V6.7H21.8z M20.9,20h-5.7c-0.5,0-0.9-0.4-0.9-1
	c0-0.5,0.4-1,0.9-1h1.9v-1.9c0-0.5,0.4-1,1-1c0.5,0,1,0.4,1,1v1.9h1.9c0.5,0,0.9,0.4,0.9,1C21.8,19.6,21.4,20,20.9,20z"/>
</svg>
