<?xml version="1.0" encoding="utf-8"?>
<!-- Generator: Adobe Illustrator 18.1.1, SVG Export Plug-In . SVG Version: 6.00 Build 0)  -->
<svg version="1.1" id="Layer_1" xmlns="http://www.w3.org/2000/svg" xmlns:xlink="http://www.w3.org/1999/xlink" x="0px" y="0px"
	 viewBox="0 0 42 23" enable-background="new 0 0 42 23" xml:space="preserve">
<path d="M3.3,16h24.6v3.3H10.3H10c-0.5-1.4-1.9-2.5-3.6-2.5c-1.6,0-3,1-3.6,2.4c-0.7-0.2-1.2-0.8-1.2-1.5v-0.1
	C1.6,16.7,2.4,16,3.3,16z M9.1,20.2c0,1.5-1.3,2.8-2.8,2.8c-1.6,0-2.8-1.2-2.8-2.8c0-1.5,1.3-2.8,2.8-2.8
	C7.8,17.4,9.1,18.7,9.1,20.2z M8.2,20.2c0-1.1-0.9-1.9-2-1.9c-1.1,0-2,0.9-2,1.9c0,1.1,0.9,1.9,2,1.9C7.4,22.1,8.2,21.3,8.2,20.2z
	 M37.9,20.2c0,1.5-1.3,2.8-2.8,2.8c-1.6,0-2.8-1.2-2.8-2.8c0-1.5,1.3-2.8,2.8-2.8C36.6,17.4,37.9,18.7,37.9,20.2z M37,20.2
	c0-1.1-0.9-1.9-2-1.9c-1.1,0-2,0.9-2,1.9c0,1.1,0.9,1.9,2,1.9C36.1,22.1,37,21.3,37,20.2z M42,12.2v6.3c0,0.3-0.2,0.5-0.5,0.5h-2.8
	c-0.6-1.3-1.9-2.2-3.5-2.2c-1.5,0-2.9,0.9-3.5,2.2h-1.9c-0.3,0-0.5-0.2-0.5-0.5V5.9c0-0.3,0.2-0.5,0.5-0.5h7.2
	c0.3,0,0.8,0.1,1.1,0.5L42,12.2z M39.5,10.9l-2.4-4c-0.2-0.3-0.4-0.5-1.2-0.5h-4.4c-0.3,0-0.5,0.2-0.5,0.5v4c0,0.3,0.2,0.5,0.5,0.5
	h7.6C39.2,11.4,39.5,11.2,39.5,10.9z M41.6,16.9c0-0.3-0.2-0.5-0.5-0.5c-0.3,0-0.5,0.2-0.5,0.5v0.9c0,0.3,0.2,0.5,0.5,0.5
	c0.3,0,0.5-0.2,0.5-0.5V16.9z M0,15h27.9V0H0V15z"/>
</svg>
