<?xml version="1.0" encoding="utf-8"?>
<!-- Generator: Adobe Illustrator 18.1.1, SVG Export Plug-In . SVG Version: 6.00 Build 0)  -->
<svg version="1.1" id="Layer_1" xmlns="http://www.w3.org/2000/svg" xmlns:xlink="http://www.w3.org/1999/xlink" x="0px" y="0px"
	 viewBox="0 0 81 26" enable-background="new 0 0 81 26" xml:space="preserve">
<path d="M78.4,25.2L78.4,25.2C78.4,25.2,78.4,25.2,78.4,25.2c0.3-0.1,0.5-0.2,0.7-0.3c0.1,0,0.1-0.1,0.2-0.1
	c0.2-0.1,0.3-0.2,0.5-0.4c0.1-0.1,0.1-0.1,0.2-0.2c0,0,0.1-0.1,0.1-0.1c0.1-0.2,0.2-0.4,0.3-0.6c0,0,0,0,0-0.1
	c0.1-0.2,0.1-0.5,0.1-0.7c0,0,0-0.1,0-0.1L79.8,6.7c0-1.2-1.1-2-2.3-1.8c-1.2,0.2-2.1,1.4-2.1,2.6l0.3,8.6
	c-5.7-5.9-13.1-9.5-13.4-9.6C40.2-5.4,12.5,1.6,0.5,22c-0.6,1-0.4,2.2,0.4,2.8C1,24.9,1.1,25,1.2,25c1,0.5,2.3,0.1,3-1.1
	C14.8,5.8,39.9-0.3,60.1,10.4c0.1,0,7.7,3.8,13.1,9.5l-9.9-1.3c-1.2-0.2-2.3,0.7-2.7,1.9c-0.3,1.2,0.4,2.3,1.5,2.5l15.6,2.1
	C78,25.2,78.2,25.2,78.4,25.2z"/>
</svg>
