<?xml version="1.0" encoding="utf-8"?>
<!-- Generator: Adobe Illustrator 18.1.1, SVG Export Plug-In . SVG Version: 6.00 Build 0)  -->
<svg version="1.1" id="Layer_1" xmlns="http://www.w3.org/2000/svg" xmlns:xlink="http://www.w3.org/1999/xlink" x="0px" y="0px"
	 viewBox="0 0 28 28" enable-background="new 0 0 28 28" xml:space="preserve">
<path fill-rule="evenodd" clip-rule="evenodd" d="M26.1,21c-1.3,2.1-3,3.8-5.1,5.1c-2.1,1.3-4.5,1.9-7,1.9c-2.5,0-4.9-0.6-7-1.9
	c-2.1-1.3-3.8-3-5.1-5.1C0.6,18.9,0,16.5,0,14c0-2.5,0.6-4.9,1.9-7c1.3-2.1,3-3.8,5.1-5.1C9.1,0.6,11.5,0,14,0c2.5,0,4.9,0.6,7,1.9
	c2.1,1.3,3.8,3,5.1,5.1c1.3,2.1,1.9,4.5,1.9,7C28,16.5,27.4,18.9,26.1,21z M22.6,9c-0.9-1.5-2.1-2.7-3.6-3.6c-1.5-0.9-3.2-1.3-5-1.3
	c-1.8,0-3.5,0.4-5,1.3C7.5,6.3,6.3,7.5,5.4,9c-0.9,1.5-1.3,3.2-1.3,5c0,1.8,0.4,3.5,1.3,5c0.9,1.5,2.1,2.7,3.6,3.6
	c1.5,0.9,3.2,1.3,5,1.3c1.8,0,3.5-0.4,5-1.3c1.5-0.9,2.7-2.1,3.6-3.6c0.9-1.5,1.3-3.2,1.3-5C23.9,12.2,23.5,10.5,22.6,9z M15.8,16.3
	H9.9c-0.2,0-0.3-0.1-0.4-0.2c-0.1-0.1-0.2-0.2-0.2-0.4v-1.2c0-0.2,0.1-0.3,0.2-0.4C9.6,14.1,9.7,14,9.9,14H14V7.6
	c0-0.2,0.1-0.3,0.2-0.4C14.3,7.1,14.4,7,14.6,7h1.2c0.2,0,0.3,0.1,0.4,0.2c0.1,0.1,0.2,0.2,0.2,0.4v8.2c0,0.2-0.1,0.3-0.2,0.4
	C16.1,16.3,15.9,16.3,15.8,16.3z"/>
</svg>
