<?xml version="1.0" encoding="utf-8"?>
<!-- Generator: Adobe Illustrator 18.1.1, SVG Export Plug-In . SVG Version: 6.00 Build 0)  -->
<svg version="1.1" id="Layer_1" xmlns="http://www.w3.org/2000/svg" xmlns:xlink="http://www.w3.org/1999/xlink" x="0px" y="0px"
	 viewBox="0 0 34 35" enable-background="new 0 0 34 35" xml:space="preserve">
<path fill-rule="evenodd" clip-rule="evenodd" d="M32.5,18.5c-0.5,7.9-6.7,14.2-14.4,14.7V35h-1.9v-1.9C8.5,32.6,2.3,26.3,1.8,18.5
	H0v-1.9h1.8C2.3,8.7,8.4,2.4,16,1.9V0h1.9v1.8C25.7,2.2,32,8.6,32.5,16.5v0H34v1.9H32.5z M17.1,3.3C9.5,3.3,3.2,9.6,3.2,17.5
	s6.3,14.2,13.9,14.2c7.7,0,13.9-6.4,13.9-14.2S24.8,3.3,17.1,3.3z M26.7,15.6h3v0.7h-1.9v0.4h1.8v0.7h-1.8v0.4h1.9v0.7h-3V15.6z
	 M10.2,25.4l4-10.1l9.6-5l-4,10.1L10.2,25.4z M17.2,16.3c-0.8,0-1.5,0.7-1.5,1.5c0,0.8,0.7,1.5,1.5,1.5c0.8,0,1.5-0.7,1.5-1.5
	C18.7,17,18,16.3,17.2,16.3z M15.9,6.4L15.9,6.4l0,1.6h-1.1V5.1h1.3l1.1,1.6h0V5.1h1.1V8h-1.2L15.9,6.4z M6.7,19.1l-0.4-1.6h0
	l-0.4,1.6H4.8L4,16.2h1.1L5.4,18h0l0.4-1.8h0.9L7.2,18h0l0.4-1.8h1.1l-0.8,2.9H6.7z M17,28.7c0.1,0,0.2,0.1,0.4,0.1
	c0.2,0,0.3,0,0.4-0.1c0.1,0,0.1-0.1,0.1-0.2c0,0,0-0.1,0-0.1c0,0-0.1-0.1-0.2-0.1l-1.3-0.2c-0.1,0-0.3-0.1-0.4-0.1
	c-0.1,0-0.2-0.1-0.2-0.2c-0.1-0.1-0.1-0.1-0.1-0.2c0-0.1,0-0.2,0-0.3c0-0.2,0-0.3,0.1-0.5c0.1-0.1,0.2-0.2,0.3-0.3
	c0.1-0.1,0.3-0.1,0.5-0.2c0.2,0,0.4,0,0.6,0c0.3,0,0.6,0,0.8,0.1c0.2,0,0.4,0.1,0.6,0.2c0.1,0.1,0.3,0.2,0.3,0.3
	c0.1,0.1,0.1,0.3,0.1,0.4h-1.3c0-0.1,0-0.1,0-0.1c0,0-0.1-0.1-0.1-0.1c0,0-0.1,0-0.2,0c-0.1,0-0.1,0-0.2,0c-0.2,0-0.3,0-0.3,0.1
	c-0.1,0-0.1,0.1-0.1,0.1c0,0,0,0.1,0,0.1c0,0,0.1,0,0.1,0l1.3,0.2c0.3,0,0.5,0.1,0.7,0.3c0.2,0.1,0.2,0.3,0.2,0.6
	c0,0.4-0.1,0.6-0.4,0.8c-0.3,0.2-0.7,0.3-1.4,0.3c-0.2,0-0.4,0-0.6,0c-0.2,0-0.4-0.1-0.6-0.1c-0.2-0.1-0.3-0.2-0.4-0.3
	c-0.1-0.1-0.2-0.3-0.2-0.5h1.3C16.9,28.6,17,28.7,17,28.7z"/>
</svg>
