<?xml version="1.0" encoding="utf-8"?>
<!-- Generator: Adobe Illustrator 18.1.1, SVG Export Plug-In . SVG Version: 6.00 Build 0)  -->
<svg version="1.1" id="Layer_1" xmlns="http://www.w3.org/2000/svg" xmlns:xlink="http://www.w3.org/1999/xlink" x="0px" y="0px"
	 viewBox="0 0 50 47" enable-background="new 0 0 50 47" xml:space="preserve">
<path d="M31.7,25.2c0-0.7-0.6-1.4-1.4-1.4H7.2c-0.8,0-1.4,0.6-1.4,1.4c0,0.8,0.6,1.4,1.4,1.4h23.1C31.1,26.6,31.7,26,31.7,25.2z"/>
<path d="M30.5,18.4H17.5c-0.8,0-1.4,0.6-1.4,1.4c0,0.7,0.6,1.4,1.4,1.4h12.9c0.8,0,1.4-0.6,1.4-1.4C31.8,19,31.2,18.4,30.5,18.4z"/>
<path d="M34.8,41.2c0,1.7-1.4,3.1-3.1,3.1H5.8c-1.7,0-3.1-1.4-3.1-3.1V5.8c0-1.7,1.4-3.1,3.1-3.1h18.2v4.4c0,3.2,2.6,5.8,5.8,5.8
	h4.9v7.4c0-0.1,0.1-0.1,0.1-0.2c0.1-0.1,0.2-0.2,0.2-0.4c0.8-1.2,1.9-3.2,2.2-3.6c0.1-0.1,0.1-0.2,0.2-0.3v-3.7c0-0.4-0.1-0.7-0.2-1
	c-0.1-0.3-0.3-0.6-0.6-0.9l-9.9-9.5c-0.2-0.2-0.5-0.4-0.8-0.5c-0.3-0.1-0.6-0.2-1-0.2H5.8C2.6,0,0,2.6,0,5.8v35.4
	C0,44.4,2.6,47,5.8,47h25.9c3.2,0,5.8-2.6,5.8-5.8v-6.8c-0.9,1.2-1.8,2.4-2.7,3.5L34.8,41.2L34.8,41.2z"/>
<path d="M9.7,9c-1.2,0.5-2,1.3-2.1,2.7c-0.1,1.2,0.6,2,1.6,2.6c0.6,0.4,1.3,0.6,1.9,0.8c0.3,0.1,0.5,0.2,0.7,0.4
	c0.6,0.5,0.5,1.4-0.2,1.7c-0.4,0.2-0.8,0.2-1.2,0.2c-0.7-0.1-1.3-0.2-1.9-0.5c-0.3-0.2-0.5-0.1-0.6,0.3c-0.1,0.3-0.2,0.7-0.3,1
	c-0.1,0.4-0.1,0.6,0.4,0.7c0.5,0.3,1.1,0.4,1.7,0.5c0.5,0.1,0.5,0.1,0.5,0.6c0,0.2,0,0.4,0,0.6c0,0.3,0.1,0.4,0.4,0.4
	c0.3,0,0.6,0,1,0c0.3,0,0.4-0.2,0.4-0.4c0-0.3,0-0.6,0-0.9c0-0.3,0.1-0.5,0.4-0.5c0.7-0.2,1.2-0.6,1.7-1.1c1.2-1.5,0.7-3.6-1-4.6
	c-0.5-0.3-1.1-0.5-1.7-0.7c-0.3-0.1-0.6-0.3-0.9-0.5c-0.6-0.4-0.5-1.1,0.2-1.4c0.2-0.1,0.4-0.1,0.6-0.1c0.7-0.1,1.5,0.1,2.1,0.4
	c0.3,0.2,0.5,0.1,0.6-0.2c0.1-0.4,0.2-0.7,0.3-1.1c0.1-0.2,0-0.4-0.3-0.5C13.4,9,13,8.8,12.5,8.8c-0.6-0.1-0.6-0.1-0.6-0.7
	c0-0.9,0-0.9-0.9-0.9c-0.1,0-0.2,0-0.4,0c-0.4,0-0.5,0.1-0.5,0.5c0,0.2,0,0.4,0,0.5C10.2,8.8,10.2,8.8,9.7,9z"/>
<path d="M29.1,30.8c0.2-0.5,0.5-1,0.7-1.5H7.2c-0.8,0-1.4,0.6-1.4,1.4c0,0.7,0.6,1.4,1.4,1.4h21.3C28.7,31.6,28.9,31.2,29.1,30.8z"
	/>
<path d="M5.8,36.2L5.8,36.2c0,0.7,0.6,1.4,1.4,1.4h19.1c0.3-0.9,0.6-1.8,1-2.7H7.2C6.4,34.8,5.8,35.4,5.8,36.2z"/>
<path d="M49.5,15.7L49.5,15.7l-0.8-0.5l-1.3-0.7c0.2-0.5,0.4-1,0.5-1.4c0-0.2,0.1-0.3,0.1-0.5c0.2-1.1-0.2-1.9-1.3-2.6
	c-1-0.6-1.7-0.5-2.6,0.2c-0.6,0.5-1.1,1.1-1.5,1.7c-1.6,2.2-3,4.6-4.5,7l-1.8,2.9l0,0c-1.9,3.2-3.7,6.5-5.3,9.9
	C30,34,29,36.2,28.3,38.6c-0.1,0.3-0.2,0.7-0.2,1c0,0.4-0.2,0.9,0.2,1.1c0.4,0.2,0.8-0.1,1.1-0.3c0.9-0.6,1.6-1.4,2.3-2.2
	c3.5-3.9,6.4-8.3,9.3-12.7l0,0l2.2-3.6c1-1.6,2-3.2,2.9-4.9c0.2-0.3,0.4-0.6,0.5-0.9l1.2,0.7l-5.7,9.8c-0.4,0.7-0.1,1.7,0.9,2
	c0.1,0,0.2,0,0.2-0.1L49.9,17C50.1,16.5,50,15.9,49.5,15.7z"/>
</svg>
