<?xml version="1.0" encoding="utf-8"?>
<!-- Generator: Adobe Illustrator 18.1.1, SVG Export Plug-In . SVG Version: 6.00 Build 0)  -->
<svg version="1.1" id="Layer_1" xmlns="http://www.w3.org/2000/svg" xmlns:xlink="http://www.w3.org/1999/xlink" x="0px" y="0px"
	 viewBox="0 0 35 33" enable-background="new 0 0 35 33" xml:space="preserve">
<path fill-rule="evenodd" clip-rule="evenodd" d="M35,20.2c-0.1,0.9-0.6,1.7-1.3,2.2l-9.3,7.2c-1,0.7-2.1,1.2-3.3,1.2H6.6v1.1
	c0,0.6-0.5,1.1-1.1,1.1H1.1C0.5,33,0,32.5,0,31.9V16.5c0-0.6,0.5-1.1,1.1-1.1h4.4c0.6,0,1.1,0.5,1.1,1.1v1.1l12,0
	c0.6,0,1.1,0.5,1.1,1.1c0,2.2-0.9,4.1-2.3,5.5h1.9c1,0,1.9-0.3,2.7-0.9l7.8-6.1c0.7-0.5,1.5-0.8,2.4-0.7c0.9,0.1,1.7,0.6,2.2,1.3
	C34.8,18.5,35.1,19.3,35,20.2z M4.4,17.6H2.2v13.2h2.2V17.6z M32.6,19.1c-0.2-0.2-0.5-0.4-0.7-0.4c-0.3,0-0.6,0-0.8,0.2L23.3,25
	c-1.1,0.9-2.6,1.4-4,1.4H12c-0.6,0-1.1-0.5-1.1-1.1c0-0.6,0.5-1.1,1.1-1.1c2.6,0,4.9-1.9,5.4-4.4l-10.8,0v8.8h14.6
	c0.7,0,1.4-0.2,2-0.7l9.2-7.2c0.2-0.2,0.4-0.5,0.4-0.7C32.8,19.6,32.8,19.4,32.6,19.1z M28.4,12.1c0,1.8-1.5,3.3-3.3,3.3
	c-1.8,0-3.3-1.5-3.3-3.3c0-1.8,1.5-3.3,3.3-3.3C27,8.8,28.4,10.3,28.4,12.1z M24.1,12.1c0,0.6,0.5,1.1,1.1,1.1
	c0.6,0,1.1-0.5,1.1-1.1c0-0.6-0.5-1.1-1.1-1.1C24.6,11,24.1,11.5,24.1,12.1z M17.2,15c-0.2,0.3-0.5,0.4-0.8,0.4
	c-0.2,0-0.5-0.1-0.7-0.3c-0.5-0.4-0.5-1.1-0.1-1.5L26.5,0.4c0.4-0.5,1.1-0.5,1.5-0.1c0.5,0.4,0.5,1.1,0.1,1.5L17.2,15z M18.6,6.6
	c-1.8,0-3.3-1.5-3.3-3.3c0-1.8,1.5-3.3,3.3-3.3s3.3,1.5,3.3,3.3C21.9,5.1,20.4,6.6,18.6,6.6z M18.6,2.2c-0.6,0-1.1,0.5-1.1,1.1
	s0.5,1.1,1.1,1.1c0.6,0,1.1-0.5,1.1-1.1S19.2,2.2,18.6,2.2z"/>
</svg>
