<?xml version="1.0" encoding="utf-8"?>
<!-- Generator: Adobe Illustrator 18.1.1, SVG Export Plug-In . SVG Version: 6.00 Build 0)  -->
<svg version="1.1" id="Layer_1" xmlns="http://www.w3.org/2000/svg" xmlns:xlink="http://www.w3.org/1999/xlink" x="0px" y="0px"
	 viewBox="0 0 24 30" enable-background="new 0 0 24 30" xml:space="preserve">
<path fill-rule="evenodd" clip-rule="evenodd" d="M23.9,4l-8.1,13.6c1.8,1.2,3,3.3,3,5.6c0,3.7-3,6.8-6.8,6.8c-3.7,0-6.8-3-6.8-6.8
	c0-2.3,1.2-4.4,2.9-5.6L0.1,4c-0.2-0.3-0.1-0.7,0.2-1l3.9-2.9c0,0,0,0,0.1,0c0,0,0,0,0,0c0,0,0.1,0,0.1,0c0,0,0,0,0,0c0,0,0,0,0.1,0
	c0,0,0,0,0,0c0,0,0,0,0.1,0c0,0,0,0,0,0c0,0,0.1,0,0.1,0c0,0,0,0,0,0h14.6c0,0,0,0,0,0c0,0,0.1,0,0.1,0c0,0,0,0,0,0c0,0,0,0,0.1,0
	c0,0,0,0,0,0c0,0,0,0,0.1,0c0,0,0,0,0,0c0,0,0.1,0,0.1,0c0,0,0,0,0,0c0,0,0,0,0,0l4,2.9C24,3.3,24.1,3.7,23.9,4z M10.3,26.4h1.9H14
	c0.4,0,0.7-0.3,0.7-0.7c0-0.4-0.3-0.7-0.7-0.7h-1.1v-4.7c0-0.3-0.2-0.6-0.5-0.7c-0.3-0.1-0.6-0.1-0.8,0.2l-1.9,1.9
	c-0.3,0.3-0.3,0.7,0,1c0.3,0.3,0.7,0.3,1,0l0.6-0.6v2.9h-1.1c-0.4,0-0.7,0.3-0.7,0.7C9.6,26.1,9.9,26.4,10.3,26.4z M4.4,1.8L1.7,3.9
	l7.6,12.8l1.9-3.3L4.4,1.8z M7.9,4.9l4.1,7.1l4.1-7.1H7.9z M19.5,1.8l-6.9,12c0,0,0,0,0,0c0,0,0,0,0,0L11,16.5c0.3,0,0.7-0.1,1-0.1
	c0.9,0,1.8,0.2,2.5,0.5l7.8-13.1L19.5,1.8z"/>
</svg>
