<?xml version="1.0" encoding="utf-8"?>
<!-- Generator: Adobe Illustrator 18.1.1, SVG Export Plug-In . SVG Version: 6.00 Build 0)  -->
<svg version="1.1" id="Layer_1" xmlns="http://www.w3.org/2000/svg" xmlns:xlink="http://www.w3.org/1999/xlink" x="0px" y="0px"
	 viewBox="0 0 68 44" enable-background="new 0 0 68 44" xml:space="preserve">
<path d="M54.5,13.9c0-4.5-3.6-8.1-8.1-8.1s-8.1,3.6-8.1,8.1c0,4.5,3.6,8.1,8.1,8.1S54.5,18.4,54.5,13.9z M46,19.4
	c-0.2,0-0.3-0.1-0.3-0.4c0-0.2,0-0.4,0-0.5c0-0.4,0-0.4-0.4-0.5c-0.5-0.1-0.9-0.2-1.4-0.4c-0.3-0.2-0.4-0.3-0.3-0.6
	c0.1-0.3,0.1-0.5,0.2-0.8c0.1-0.3,0.2-0.4,0.5-0.2c0.5,0.3,1,0.4,1.5,0.5c0.3,0,0.7,0,1-0.1c0.6-0.3,0.7-1,0.2-1.4
	c-0.2-0.1-0.4-0.3-0.6-0.3c-0.5-0.2-1.1-0.4-1.6-0.7c-0.8-0.5-1.3-1.2-1.3-2.1c0.1-1.1,0.7-1.8,1.7-2.2c0.4-0.2,0.4-0.1,0.4-0.6
	c0-0.2,0-0.3,0-0.4c0-0.3,0.1-0.4,0.4-0.4c0.1,0,0.2,0,0.3,0c0.7,0,0.7,0,0.7,0.7c0,0.5,0,0.5,0.5,0.6c0.4,0.1,0.7,0.2,1.1,0.3
	c0.2,0.1,0.3,0.2,0.2,0.4c-0.1,0.3-0.2,0.6-0.3,0.9c-0.1,0.3-0.2,0.3-0.4,0.2c-0.5-0.3-1.1-0.4-1.7-0.3c-0.2,0-0.3,0-0.5,0.1
	c-0.5,0.2-0.6,0.8-0.2,1.2c0.2,0.2,0.5,0.3,0.7,0.4c0.5,0.2,0.9,0.4,1.4,0.6c1.4,0.8,1.8,2.5,0.8,3.7c-0.3,0.4-0.8,0.7-1.4,0.9
	C47.1,18,47,18.1,47,18.4c0,0.2,0,0.5,0,0.7c0,0.2-0.1,0.3-0.3,0.3C46.5,19.4,46.2,19.4,46,19.4z"/>
<path d="M34.6,12c1.2,0,2.2,1,2.2,2.3c0,1.2-1,2.3-2.2,2.3c-1.2,0-2.2-1-2.2-2.3C32.4,13,33.4,12,34.6,12z"/>
<path d="M58.2,12c1.2,0,2.2,1,2.2,2.3c0,1.2-1,2.3-2.2,2.3c-1.2,0-2.2-1-2.2-2.3C56,13,57,12,58.2,12z"/>
<path d="M64.3,0.6H29c-2,0-3.7,1.7-3.7,3.7v12.4c0.5,0,1.1,0,1.6,0c0.5,0,1,0,1.5,0V8.3c0.3,0.1,0.6,0.1,0.9,0.1
	c2.1,0,3.7-1.7,3.7-3.8c0-0.3,0-0.6-0.1-0.9h27.5c0,0.2-0.1,0.5-0.1,0.7c0,2.1,1.7,3.8,3.7,3.8c0.2,0,0.4,0,0.7-0.1v11.4
	c-0.2,0-0.4-0.1-0.7-0.1c-2.1,0-3.7,1.7-3.7,3.8c0,0.2,0,0.5,0.1,0.7H40.8c0,0.1,0,0.2,0,0.3c0,0,0,0.1,0,0.1v2.8h23.5
	c2,0,3.7-1.7,3.7-3.7V4.3C68,2.2,66.4,0.6,64.3,0.6z"/>
<path d="M3.8,18.7c2,0.8,4.7,1.2,7.6,1.2c1.5,0,3-0.1,4.3-0.4c0.7-0.6,1.7-1.1,2.9-1.5c1.2-0.4,2.6-0.8,4.1-1v-2c0,0,0-0.1,0-0.1
	l0,0c0,0,0,0,0-0.1v-4.8c0,0,0-0.1,0-0.1l0,0c0,0,0,0,0-0.1V5.1c0,0,0-0.1,0-0.1c0-1.1-0.7-2.7-3.8-3.9c-2-0.8-4.7-1.2-7.6-1.2
	C8.5,0,5.8,0.4,3.8,1.2C0.7,2.4,0,3.9,0,5v4.9c0,0,0,0,0,0.1l0,0v4.9c0,0,0,0,0,0.1l0,0v0.1v4.8v0.1c0,0,0,0,0,0.1l0,0v4.9
	c0,0,0,0,0,0.1l0,0v4.9c0,1.1,0.7,2.7,3.8,3.9c2,0.8,4.7,1.2,7.6,1.2c0.6,0,1.2,0,1.8-0.1v-0.5v-0.1c0,0,0,0,0,0c0,0,0,0,0,0v-1.9
	c-0.6,0-1.2,0.1-1.8,0.1c-2.6,0-4.9-0.4-6.7-1c-1.7-0.7-2.1-1.3-2.1-1.5v-1.6c0.4,0.2,0.8,0.4,1.3,0.6c2,0.8,4.7,1.2,7.6,1.2
	c0.6,0,1.2,0,1.8-0.1v-0.6c0,0,0,0,0,0s0,0,0,0v-1.9c-0.6,0-1.2,0.1-1.8,0.1c-2.6,0-4.9-0.4-6.7-1c-1.7-0.7-2.1-1.3-2.1-1.5v-1.6
	c0.4,0.2,0.8,0.4,1.3,0.6c2,0.8,4.7,1.2,7.6,1.2c0.6,0,1.2,0,1.8-0.1v-0.6c0-0.6,0.1-1.3,0.4-2.1c-0.7,0.1-1.5,0.1-2.2,0.1
	c-2.6,0-4.9-0.4-6.7-1c-1.7-0.7-2.1-1.3-2.1-1.5v-1.6C2.9,18.3,3.3,18.5,3.8,18.7z M4.6,3.5c1.8-0.7,4.2-1,6.7-1
	c2.6,0,4.9,0.4,6.7,1c1.7,0.6,2.1,1.3,2.1,1.5v0c0,0.2-0.4,0.8-2.1,1.5c-1.8,0.7-4.2,1-6.7,1c-2.6,0-4.9-0.4-6.7-1
	C2.9,5.9,2.5,5.2,2.5,5C2.5,4.9,2.9,4.2,4.6,3.5z M2.5,8.3c0.4,0.2,0.8,0.4,1.3,0.6c2,0.8,4.7,1.2,7.6,1.2c2.8,0,5.5-0.4,7.6-1.2
	c0.5-0.2,0.9-0.4,1.3-0.6v1.6l0,0l0,0v0c0,0.2-0.4,0.8-2.1,1.5c-1.8,0.7-4.2,1-6.7,1c-2.6,0-4.9-0.4-6.7-1c-1.7-0.7-2.1-1.3-2.1-1.5
	L2.5,8.3L2.5,8.3z M2.5,13.2c0.4,0.2,0.8,0.4,1.3,0.6c2,0.8,4.7,1.2,7.6,1.2c2.8,0,5.5-0.4,7.6-1.2c0.5-0.2,0.9-0.4,1.3-0.6v1.6l0,0
	l0,0v0c0,0.2-0.4,0.8-2.1,1.5c-1.8,0.7-4.2,1-6.7,1c-2.6,0-4.9-0.4-6.7-1c-1.7-0.7-2.1-1.3-2.1-1.5L2.5,13.2L2.5,13.2z"/>
<path d="M34.6,20.4c-2-0.8-4.7-1.2-7.6-1.2c-2.8,0-5.5,0.4-7.6,1.2c-3.1,1.2-3.8,2.7-3.8,3.9v4.9c0,0,0,0,0,0.1l0,0V34
	c0,0,0,0,0,0.1l0,0v0.1v4.8v0.1c0,1.1,0.7,2.7,3.8,3.9c2,0.8,4.7,1.2,7.6,1.2c2.8,0,5.5-0.4,7.6-1.2c3.1-1.2,3.8-2.7,3.8-3.9v-0.1
	l0,0v-4.8c0,0,0-0.1,0-0.1l0,0c0,0,0,0,0-0.1v-4.8c0,0,0-0.1,0-0.1l0,0c0,0,0,0,0-0.1v-4.8c0,0,0-0.1,0-0.1
	C38.3,23.1,37.7,21.5,34.6,20.4z M20.3,22.7c1.8-0.7,4.2-1,6.7-1c2.6,0,4.9,0.4,6.7,1c1.7,0.6,2.1,1.3,2.1,1.5v0
	c0,0.2-0.4,0.8-2.1,1.5c-1.8,0.7-4.2,1-6.7,1c-2.6,0-4.9-0.4-6.7-1c-1.7-0.7-2.1-1.3-2.1-1.5C18.1,24.1,18.5,23.4,20.3,22.7z
	 M33.7,40.4c-1.8,0.7-4.2,1-6.7,1c-2.6,0-4.9-0.4-6.7-1c-1.7-0.7-2.1-1.3-2.1-1.5v-1.6c0.4,0.2,0.8,0.4,1.3,0.6
	c2,0.8,4.7,1.2,7.6,1.2c2.8,0,5.5-0.4,7.6-1.2c0.5-0.2,0.9-0.4,1.3-0.6v1.6C35.8,39.1,35.4,39.7,33.7,40.4z M35.8,34L35.8,34
	L35.8,34c0,0.2-0.4,0.9-2.1,1.5c-1.8,0.7-4.2,1-6.7,1c-2.6,0-4.9-0.4-6.7-1c-1.7-0.7-2.1-1.3-2.1-1.5v-1.6c0.4,0.2,0.8,0.4,1.3,0.6
	c2,0.8,4.7,1.2,7.6,1.2c2.8,0,5.5-0.4,7.6-1.2c0.5-0.2,0.9-0.4,1.3-0.6L35.8,34L35.8,34z M35.8,29.1L35.8,29.1L35.8,29.1
	c0,0.2-0.4,0.9-2.1,1.5c-1.8,0.7-4.2,1-6.7,1c-2.6,0-4.9-0.4-6.7-1c-1.7-0.7-2.1-1.3-2.1-1.5v-1.6c0.4,0.2,0.8,0.4,1.3,0.6
	c2,0.8,4.7,1.2,7.6,1.2c2.8,0,5.5-0.4,7.6-1.2c0.5-0.2,0.9-0.4,1.3-0.6L35.8,29.1L35.8,29.1z"/>
</svg>
