<?xml version="1.0" encoding="utf-8"?>
<!-- Generator: Adobe Illustrator 18.1.1, SVG Export Plug-In . SVG Version: 6.00 Build 0)  -->
<svg version="1.1" id="Layer_1" xmlns="http://www.w3.org/2000/svg" xmlns:xlink="http://www.w3.org/1999/xlink" x="0px" y="0px"
	 viewBox="0 0 26 26" enable-background="new 0 0 26 26" xml:space="preserve">
<path fill-rule="evenodd" clip-rule="evenodd" d="M24.7,20.7c-0.7,0.7-1.5,1.5-2.2,2.2l-5.8-5.8c0.1-0.1,0.3-0.2,0.4-0.3l0.9-0.9
	l1-1h0c0.3-0.3,0.9-0.3,1.3,0l4.5,4.5C25.1,19.8,25.1,20.3,24.7,20.7z M13.3,23.8c-1.3-0.6-2.5-1.5-3.7-2.4
	c-1.1-0.9-2.2-1.8-3.2-2.8c-1-1-2-2.1-2.8-3.2c-0.9-1.1-1.7-2.4-2.4-3.7c-1.5-3.1-1.7-6.6-0.3-8l5.9,5.9c-0.3,0.9-0.2,2.1,0.4,2.8
	c0.8,1,1.7,1.9,2.6,2.7c0.9,0.9,1.8,1.7,2.7,2.6c0.8,0.7,1.9,0.8,2.8,0.4l5.9,5.9C19.9,25.4,16.4,25.3,13.3,23.8z M9.1,7L8.2,7.9
	C8,8,7.9,8.1,7.8,8.3L2.1,2.5C2.8,1.7,3.6,1,4.3,0.3c0.3-0.3,0.9-0.4,1.2,0l4.5,4.5c0.3,0.3,0.3,0.9,0,1.3L9.1,7z"/>
</svg>
