<?xml version="1.0" encoding="utf-8"?>
<!-- Generator: Adobe Illustrator 18.1.1, SVG Export Plug-In . SVG Version: 6.00 Build 0)  -->
<svg version="1.1" id="Layer_1" xmlns="http://www.w3.org/2000/svg" xmlns:xlink="http://www.w3.org/1999/xlink" x="0px" y="0px"
	 viewBox="0 0 31 31" enable-background="new 0 0 31 31" xml:space="preserve">
<path fill-rule="evenodd" clip-rule="evenodd" d="M30.8,25.8c-0.2,0.3-0.6,0.4-1,0.3l-5.7-1.5l-1.5,5.7c-0.1,0.4-0.4,0.7-0.8,0.7
	c0,0-0.1,0-0.1,0c-0.3,0-0.7-0.2-0.8-0.5l-5.3-9.2l-5.3,9.2C10,30.8,9.7,31,9.4,31c0,0-0.1,0-0.1,0c-0.4-0.1-0.7-0.3-0.8-0.7
	l-1.5-5.7l-5.7,1.5c-0.4,0.1-0.8,0-1-0.3C0,25.5-0.1,25,0.1,24.7l5.6-9.8c-0.6-1.3-0.9-2.8-0.9-4.3C4.8,4.8,9.6,0,15.5,0
	s10.7,4.8,10.7,10.7c0,1.5-0.3,3-0.9,4.3l5.6,9.8C31.1,25,31,25.5,30.8,25.8z M3,23.6l4.4-1.2c0.2-0.1,0.5,0,0.7,0.1
	c0.2,0.1,0.4,0.3,0.5,0.6l1.2,4.4l3.7-6.4c-2.7-0.5-5-2.1-6.5-4.2L3,23.6z M15.5,1.9c-4.8,0-8.7,3.9-8.7,8.7c0,4.8,3.9,8.7,8.7,8.7
	c4.8,0,8.7-3.9,8.7-8.7C24.2,5.8,20.3,1.9,15.5,1.9z M24.1,16.9c-1.5,2.1-3.9,3.7-6.5,4.2l3.7,6.4l1.2-4.4c0.1-0.2,0.2-0.5,0.5-0.6
	c0.2-0.1,0.5-0.2,0.7-0.1l4.4,1.2L24.1,16.9z M19.3,11.5l0.2,3c0,0.3-0.1,0.7-0.4,0.9c-0.2,0.1-0.4,0.2-0.6,0.2
	c-0.1,0-0.3,0-0.4-0.1l-2.6-1.1l-2.6,1.1c-0.3,0.1-0.7,0.1-0.9-0.1c-0.3-0.2-0.4-0.5-0.4-0.9l0.2-3L9.9,9.1C9.7,8.9,9.6,8.5,9.7,8.2
	c0.1-0.3,0.4-0.5,0.7-0.6l2.7-0.7l1.5-2.5c0.3-0.6,1.3-0.6,1.7,0l1.5,2.5l2.7,0.7c0.3,0.1,0.6,0.3,0.7,0.6c0.1,0.3,0,0.7-0.2,0.9
	L19.3,11.5z M17,8.7c-0.2-0.1-0.5-0.2-0.6-0.4l-0.9-1.5l-0.9,1.5c-0.1,0.2-0.3,0.4-0.6,0.4l-1.7,0.4l1.1,1.4
	c0.2,0.2,0.2,0.4,0.2,0.7L13.6,13l1.5-0.7c0.1-0.1,0.3-0.1,0.4-0.1c0.1,0,0.3,0,0.4,0.1l1.5,0.7l-0.1-1.8c0-0.2,0.1-0.5,0.2-0.7
	l1.1-1.4L17,8.7z"/>
</svg>
