<?xml version="1.0" encoding="utf-8"?>
<!-- Generator: Adobe Illustrator 18.1.1, SVG Export Plug-In . SVG Version: 6.00 Build 0)  -->
<svg version="1.1" id="Layer_1" xmlns="http://www.w3.org/2000/svg" xmlns:xlink="http://www.w3.org/1999/xlink" x="0px" y="0px"
	 viewBox="0 0 52 45" enable-background="new 0 0 52 45" xml:space="preserve">
<path d="M26,17.5c2.8,0,5.1-2.3,5.1-5.1c0-2.8-2.3-5.1-5.1-5.1c-2.8,0-5.1,2.3-5.1,5.1C20.9,15.2,23.2,17.5,26,17.5z M26,10.6
	c1,0,1.8,0.8,1.8,1.8c0,1-0.8,1.8-1.8,1.8c-1,0-1.8-0.8-1.8-1.8C24.2,11.4,25,10.6,26,10.6z"/>
<path d="M26,17.9c-5,0-9,4-9,9c0,0.9,0.7,1.6,1.6,1.6h14.7c0.9,0,1.6-0.7,1.6-1.6C35,21.9,31,17.9,26,17.9z M20.5,25.3
	c0.7-2.4,2.9-4.1,5.5-4.1c2.6,0,4.8,1.7,5.5,4.1H20.5z"/>
<path d="M49.2,0H36c-1.4,0-2.5,1-2.7,2.3H18.7C18.5,1,17.3,0,16,0H2.8C1.2,0,0,1.2,0,2.8V19c0,1.5,1.2,2.8,2.8,2.8h2.9l2.2,3.9
	c0.6,1.1,2.2,1.1,2.8,0l2-3.4V30c0,1.8,1.5,3.3,3.3,3.3H21l3.6,6.2c0.6,1.1,2.2,1.1,2.8,0l3.6-6.2h4.9c1.8,0,3.3-1.5,3.3-3.3v-7.8
	l2,3.4c0.6,1.1,2.2,1.1,2.8,0l2.2-3.9h2.9c1.5,0,2.8-1.2,2.8-2.8V2.8C52,1.2,50.8,0,49.2,0z M12.8,18.4c-1.9,0-1.7,0.1-3.4,3.1
	c-2-3.5-1-3.1-6.1-3.1V3.3h10.5C12.4,4.7,12.8,5.6,12.8,18.4z M35.9,30.1h-5.8c-1.2,0-1.3,0.6-4.1,5.4c-2.8-4.8-2.8-5.4-4.1-5.4
	h-5.8c0,0,0,0,0,0c0-0.1,0-24.4,0-24.4c0.1,0,19.9,0,19.9,0C36,6.8,36,29.1,35.9,30.1C36,30.1,35.9,30.1,35.9,30.1z M48.7,18.4
	c-5,0-4-0.5-6.1,3.1c-1.7-3-1.5-3.1-3.4-3.1c0-13.4,0.4-13.8-1-15.2h10.5V18.4z"/>
<path d="M45.8,41.7H6.2c-0.9,0-1.6,0.7-1.6,1.6c0,0.9,0.7,1.6,1.6,1.6h39.6c0.9,0,1.6-0.7,1.6-1.6C47.4,42.4,46.7,41.7,45.8,41.7z"
	/>
</svg>
