<?xml version="1.0" encoding="utf-8"?>
<!-- Generator: Adobe Illustrator 18.1.1, SVG Export Plug-In . SVG Version: 6.00 Build 0)  -->
<svg version="1.1" id="Layer_1" xmlns="http://www.w3.org/2000/svg" xmlns:xlink="http://www.w3.org/1999/xlink" x="0px" y="0px"
	 viewBox="0 0 29 35" enable-background="new 0 0 29 35" xml:space="preserve">
<path d="M26.1,10.3L27,9.1c0.5-0.6,0.4-1.5-0.3-2l-2.4-1.8c-0.6-0.5-1.5-0.4-2,0.3l-0.9,1.2c1.5,0.7,2.9,1.7,4.1,2.9
	C25.7,9.9,25.9,10.1,26.1,10.3z"/>
<path d="M14.5,5.1c0.6,0,1.3,0,1.9,0.1V3.6h1.1C18.4,3.6,19,3,19,2.2V1.4C19,0.6,18.4,0,17.6,0h-6.1C10.6,0,10,0.6,10,1.4v0.7
	c0,0.8,0.6,1.4,1.5,1.4h1.1v1.7C13.2,5.2,13.9,5.1,14.5,5.1z"/>
<path d="M14.5,35c8,0,14.5-6.5,14.5-14.4c0-3.6-1.3-6.9-3.6-9.4c-1.3-1.5-2.9-2.7-4.7-3.5c-1.3-0.6-2.8-1.1-4.4-1.3
	c-0.6-0.1-1.3-0.1-1.9-0.1s-1.3,0-1.9,0.1C5.5,7.2,0,13.3,0,20.6C0,28.5,6.5,35,14.5,35z M18.5,10.6c1.9,0.7,3.5,2,4.7,3.5
	c1.1,1.4,1.8,3.1,2.1,4.9c0.1,0.5,0.1,1,0.1,1.6h-7.2h-3.7h-0.1v-0.1v-4.7V9.8c0,0,0,0,0.1,0c0.5,0,1,0,1.5,0.1
	C16.9,10,17.7,10.2,18.5,10.6z"/>
</svg>
