<svg xmlns="http://www.w3.org/2000/svg" viewBox="0 0 28 28"><path d="M23.4 4.2c.3 0 .5-.3.5-.7V.7c0-.4-.2-.7-.5-.7s-.5.3-.5.7v2.8c0 .4.2.7.5.7zM13.8 4.2c.3 0 .5-.3.5-.7V.7c0-.4-.2-.7-.5-.7s-.5.3-.5.7v2.8c0 .4.2.7.5.7zM4.4 4.2c.3 0 .5-.3.5-.7V.7c0-.4-.2-.7-.5-.7s-.5.3-.5.7v2.8c0 .4.2.7.5.7z"/><path d="M28 4c0-1.2-1-2.2-2.1-2.2h-1.4v1.7c0 .7-.5 1.3-1.1 1.3-.6 0-1.1-.6-1.1-1.3V1.8h-7.4v1.7c0 .7-.5 1.3-1.1 1.3-.6 0-1.1-.6-1.1-1.3V1.8H5.5v1.7c0 .7-.5 1.3-1.1 1.3-.6 0-1.1-.6-1.1-1.3V1.8H2.1C1 1.8 0 2.8 0 4v21.8C0 27 1 28 2.1 28h23.8c1.2 0 2.1-1 2.1-2.1V7 4zm-1.9 20.4c0 1.1-.8 1.9-1.9 1.9H3.5c-1 0-1.9-.9-1.9-1.9V7.2c0-.2 0-.4.1-.5H26c0 .2.1.3.1.5v17.2z"/><path d="M3.8 12l.5 2.3 2.6-1.2v10.5H10V10.4H7.4L3.8 12zM19 21l1.3-1c2-1.7 3.6-3.5 3.6-5.7 0-2.4-1.7-4.1-4.8-4.1-1.8 0-3.4.6-4.4 1.4l.9 2.2c.7-.5 1.7-1.1 2.9-1.1 1.6 0 2.2.9 2.2 1.9 0 1.5-1.5 3-4.5 5.6l-1.7 1.5v1.9h9.6v-2.5L19 21z"/></svg>