<svg xmlns="http://www.w3.org/2000/svg" viewBox="0 0 57 40"><path d="M42.7 22.9h-2.9c-.5 0-1 .4-1 1 0 .5.4 1 1 1h2.9c.5 0 1-.4 1-1s-.4-1-1-1zM44.6 32.4v1.9h1.9v-1.9h-1.9zM10.4 32.4v1.9h1.9v-1.9h-1.9z"/><path d="M57 24.2c0-.1 0-.3-.1-.4v-.1c-.5-2.7-2.8-4.7-5.6-4.7h-1.9v-6c0-3-2.4-5.4-5.4-5.4h-7.9V3.8c0-2.1-1.7-3.8-3.8-3.8H3.8C1.7 0 0 1.7 0 3.8v27.6c0 .5.4 1 .9 1h3.9c0 .3-.1.6-.1 1 0 3.7 3 6.7 6.7 6.7h11.4c.5 0 1-.4 1-1 0-.5-.4-1-1-1H16c1.2-1.2 2-2.9 2-4.8 0-.3 0-.6-.1-1H39c0 .3-.1.6-.1 1 0 1.9.8 3.6 2 4.8h-6.8c-.5 0-1 .4-1 1 0 .5.4 1 1 1H56c.5 0 1-.4 1-1 0-.5-.4-1-1-1h-5.8c1.2-1.2 2-2.9 2-4.8 0-.3 0-.6-.1-1H56c.5 0 1-.4 1-1V24.6v-.4zM6.7 28.6c-.3.3-.5.5-.7.8v.1c-.2.3-.4.6-.6 1H1.9v-1.9h4.8c.1 0 .1 0 0 0zm7.5 5.7c0 1-.8 1.9-1.9 1.9h-1.9c-1 0-1.9-.8-1.9-1.9v-1.9c0-1 .8-1.9 1.9-1.9h1.9c1 0 1.9.8 1.9 1.9v1.9zM9.5 23.8c-.5 0-.9-.4-.9-1V5.7c0-.5.4-1 .9-1h17.1c.5 0 1 .4 1 1v17.1c0 .5-.4 1-1 1H9.5zm24.7 6.7H17.4c-.2-.3-.3-.7-.6-1v-.1c-.2-.3-.5-.6-.7-.8h18.2v1.9zm1.9-21H44c1.4 0 2.5.8 3.1 1.9H39c-.5 0-.9.4-.9 1v3.8c0 .5.4 1 .9 1h8.6V19H36.1V9.5zm12.3 24.8c0 1-.8 1.9-1.9 1.9h-1.9c-1 0-1.9-.8-1.9-1.9v-1.9c0-1 .8-1.9 1.9-1.9h1.9c1 0 1.9.8 1.9 1.9v1.9zm6.7-3.8h-3.5c-.3-.5-.6-1-1-1.5l-.1-.1-.6-.6c-.2-.2-.5-.4-.7-.5 0 0-.1 0-.1-.1-.2-.1-.5-.3-.7-.4h-.1c-.3-.1-.5-.2-.8-.3h-.1c-.2-.1-.5-.1-.7-.2h-.2c-.3 0-.6-.1-.9-.1-.3 0-.6 0-.9.1h-.2c-.3 0-.5.1-.7.2h-.1c-.3.1-.6.2-.8.3h-.1c-.2.1-.5.2-.7.4 0 0-.1 0-.1.1-.2.2-.5.3-.7.5l-.6.6-.1.1c-.4.4-.7.9-1 1.5h-3.5V21H51.2c1.4 0 2.6.8 3.3 1.9h-2.3c-.5 0-1 .4-1 1v3.8c0 .5.4 1 1 1H55v1.8h.1zM4.7 38.1H.9c-.5 0-.9.4-.9 1 0 .5.4 1 .9 1h3.8c.5 0 .9-.4.9-1 .1-.6-.3-1-.9-1z"/><path d="M30.4 38.1h-3.8c-.5 0-.9.4-.9 1 0 .5.4 1 .9 1h3.8c.5 0 .9-.4.9-1s-.4-1-.9-1zM16.1 6.7v4.9l1.4-.9c.2-.1.3-.2.5-.2s.4.1.5.2l1.4.9V6.7h-3.8z"/><path d="M21.8 6.7v6.7c0 .4-.2.7-.5.8-.1.1-.3.1-.4.1-.2 0-.4-.1-.5-.2L18 12.6l-2.3 1.6c-.3.2-.7.2-1 0-.3-.2-.5-.5-.5-.8V6.7h-3.8v15.2h15.2V6.7h-3.8zM20.9 20h-5.7c-.5 0-.9-.4-.9-1 0-.5.4-1 .9-1h1.9v-1.9c0-.5.4-1 1-1 .5 0 1 .4 1 1V18H21c.5 0 .9.4.9 1-.1.6-.5 1-1 1z"/></svg>