<svg xmlns="http://www.w3.org/2000/svg" viewBox="0 0 42 23"><path d="M3.3 16h24.6v3.3H10c-.5-1.4-1.9-2.5-3.6-2.5-1.6 0-3 1-3.6 2.4-.7-.2-1.2-.8-1.2-1.5v-.1c0-.9.8-1.6 1.7-1.6zm5.8 4.2c0 1.5-1.3 2.8-2.8 2.8-1.6 0-2.8-1.2-2.8-2.8 0-1.5 1.3-2.8 2.8-2.8 1.5 0 2.8 1.3 2.8 2.8zm-.9 0c0-1.1-.9-1.9-2-1.9s-2 .9-2 1.9c0 1.1.9 1.9 2 1.9 1.2 0 2-.8 2-1.9zm29.7 0c0 1.5-1.3 2.8-2.8 2.8-1.6 0-2.8-1.2-2.8-2.8 0-1.5 1.3-2.8 2.8-2.8 1.5 0 2.8 1.3 2.8 2.8zm-.9 0c0-1.1-.9-1.9-2-1.9s-2 .9-2 1.9c0 1.1.9 1.9 2 1.9s2-.8 2-1.9zm5-8v6.3c0 .3-.2.5-.5.5h-2.8c-.6-1.3-1.9-2.2-3.5-2.2-1.5 0-2.9.9-3.5 2.2h-1.9c-.3 0-.5-.2-.5-.5V5.9c0-.3.2-.5.5-.5H37c.3 0 .8.1 1.1.5l3.9 6.3zm-2.5-1.3l-2.4-4c-.2-.3-.4-.5-1.2-.5h-4.4c-.3 0-.5.2-.5.5v4c0 .3.2.5.5.5h7.6c.1 0 .4-.2.4-.5zm2.1 6c0-.3-.2-.5-.5-.5s-.5.2-.5.5v.9c0 .3.2.5.5.5s.5-.2.5-.5v-.9zM0 15h27.9V0H0v15z"/></svg>