<svg xmlns="http://www.w3.org/2000/svg" viewBox="0 0 28 28"><path fill-rule="evenodd" clip-rule="evenodd" d="M26.1 21c-1.3 2.1-3 3.8-5.1 5.1-2.1 1.3-4.5 1.9-7 1.9s-4.9-.6-7-1.9c-2.1-1.3-3.8-3-5.1-5.1C.6 18.9 0 16.5 0 14s.6-4.9 1.9-7c1.3-2.1 3-3.8 5.1-5.1C9.1.6 11.5 0 14 0s4.9.6 7 1.9c2.1 1.3 3.8 3 5.1 5.1 1.3 2.1 1.9 4.5 1.9 7s-.6 4.9-1.9 7zM22.6 9c-.9-1.5-2.1-2.7-3.6-3.6-1.5-.9-3.2-1.3-5-1.3-1.8 0-3.5.4-5 1.3S6.3 7.5 5.4 9c-.9 1.5-1.3 3.2-1.3 5 0 1.8.4 3.5 1.3 5s2.1 2.7 3.6 3.6c1.5.9 3.2 1.3 5 1.3 1.8 0 3.5-.4 5-1.3s2.7-2.1 3.6-3.6c.9-1.5 1.3-3.2 1.3-5 0-1.8-.4-3.5-1.3-5zm-6.8 7.3H9.9c-.2 0-.3-.1-.4-.2-.1-.1-.2-.2-.2-.4v-1.2c0-.2.1-.3.2-.4.1 0 .2-.1.4-.1H14V7.6c0-.2.1-.3.2-.4.1-.1.2-.2.4-.2h1.2c.2 0 .3.1.4.2.1.1.2.2.2.4v8.2c0 .2-.1.3-.2.4-.1.1-.3.1-.4.1z"/></svg>