<svg xmlns="http://www.w3.org/2000/svg" viewBox="0 0 34 35"><path fill-rule="evenodd" clip-rule="evenodd" d="M32.5 18.5c-.5 7.9-6.7 14.2-14.4 14.7V35h-1.9v-1.9c-7.7-.5-13.9-6.8-14.4-14.6H0v-1.9h1.8C2.3 8.7 8.4 2.4 16 1.9V0h1.9v1.8c7.8.4 14.1 6.8 14.6 14.7H34v1.9h-1.5zM17.1 3.3C9.5 3.3 3.2 9.6 3.2 17.5s6.3 14.2 13.9 14.2c7.7 0 13.9-6.4 13.9-14.2S24.8 3.3 17.1 3.3zm9.6 12.3h3v.7h-1.9v.4h1.8v.7h-1.8v.4h1.9v.7h-3v-2.9zm-16.5 9.8l4-10.1 9.6-5-4 10.1-9.6 5zm7-9.1c-.8 0-1.5.7-1.5 1.5s.7 1.5 1.5 1.5 1.5-.7 1.5-1.5-.7-1.5-1.5-1.5zm-1.3-9.9V8h-1.1V5.1h1.3l1.1 1.6V5.1h1.1V8h-1.2l-1.2-1.6zM6.7 19.1l-.4-1.6-.4 1.6H4.8L4 16.2h1.1l.3 1.8.4-1.8h.9l.5 1.8.4-1.8h1.1l-.8 2.9H6.7zM17 28.7c.1 0 .2.1.4.1s.3 0 .4-.1c.1 0 .1-.1.1-.2v-.1s-.1-.1-.2-.1l-1.3-.2c-.1 0-.3-.1-.4-.1-.1 0-.2-.1-.2-.2-.1-.1-.1-.1-.1-.2v-.3c0-.2 0-.3.1-.5l.3-.3c.1-.1.3-.1.5-.2h.6c.3 0 .6 0 .8.1.2 0 .4.1.6.2.1.1.3.2.3.3.1.1.1.3.1.4h-1.3v-.1l-.1-.1h-.4c-.2 0-.3 0-.3.1-.1 0-.1.1-.1.1v.1h.1l1.3.2c.3 0 .5.1.7.3.2.1.2.3.2.6 0 .4-.1.6-.4.8-.3.2-.7.3-1.4.3h-.6c-.2 0-.4-.1-.6-.1-.2-.1-.3-.2-.4-.3-.1-.1-.2-.3-.2-.5h1.3c.1-.1.2 0 .2 0z"/></svg>