<svg xmlns="http://www.w3.org/2000/svg" viewBox="0 0 50 47"><path d="M31.7 25.2c0-.7-.6-1.4-1.4-1.4H7.2c-.8 0-1.4.6-1.4 1.4 0 .8.6 1.4 1.4 1.4h23.1c.8 0 1.4-.6 1.4-1.4zM30.5 18.4h-13c-.8 0-1.4.6-1.4 1.4 0 .7.6 1.4 1.4 1.4h12.9c.8 0 1.4-.6 1.4-1.4 0-.8-.6-1.4-1.3-1.4z"/><path d="M34.8 41.2c0 1.7-1.4 3.1-3.1 3.1H5.8c-1.7 0-3.1-1.4-3.1-3.1V5.8c0-1.7 1.4-3.1 3.1-3.1H24v4.4c0 3.2 2.6 5.8 5.8 5.8h4.9v7.4c0-.1.1-.1.1-.2.1-.1.2-.2.2-.4.8-1.2 1.9-3.2 2.2-3.6.1-.1.1-.2.2-.3v-3.7c0-.4-.1-.7-.2-1-.1-.3-.3-.6-.6-.9L26.7.7c-.2-.2-.5-.4-.8-.5-.3-.1-.6-.2-1-.2H5.8C2.6 0 0 2.6 0 5.8v35.4C0 44.4 2.6 47 5.8 47h25.9c3.2 0 5.8-2.6 5.8-5.8v-6.8c-.9 1.2-1.8 2.4-2.7 3.5v3.3z"/><path d="M9.7 9c-1.2.5-2 1.3-2.1 2.7-.1 1.2.6 2 1.6 2.6.6.4 1.3.6 1.9.8.3.1.5.2.7.4.6.5.5 1.4-.2 1.7-.4.2-.8.2-1.2.2-.7-.1-1.3-.2-1.9-.5-.3-.2-.5-.1-.6.3-.1.3-.2.7-.3 1-.1.4-.1.6.4.7.5.3 1.1.4 1.7.5.5.1.5.1.5.6v.6c0 .3.1.4.4.4h1c.3 0 .4-.2.4-.4v-.9c0-.3.1-.5.4-.5.7-.2 1.2-.6 1.7-1.1 1.2-1.5.7-3.6-1-4.6-.5-.3-1.1-.5-1.7-.7-.3-.1-.6-.3-.9-.5-.6-.4-.5-1.1.2-1.4.2-.1.4-.1.6-.1.7-.1 1.5.1 2.1.4.3.2.5.1.6-.2.1-.4.2-.7.3-1.1.1-.2 0-.4-.3-.5-.6-.4-1-.6-1.5-.6-.6-.1-.6-.1-.6-.7 0-.9 0-.9-.9-.9h-.4c-.4 0-.5.1-.5.5v.5c.1.6.1.6-.4.8zM29.1 30.8c.2-.5.5-1 .7-1.5H7.2c-.8 0-1.4.6-1.4 1.4 0 .7.6 1.4 1.4 1.4h21.3c.2-.5.4-.9.6-1.3zM5.8 36.2c0 .7.6 1.4 1.4 1.4h19.1c.3-.9.6-1.8 1-2.7H7.2c-.8-.1-1.4.5-1.4 1.3zM49.5 15.7l-.8-.5-1.3-.7c.2-.5.4-1 .5-1.4 0-.2.1-.3.1-.5.2-1.1-.2-1.9-1.3-2.6-1-.6-1.7-.5-2.6.2-.6.5-1.1 1.1-1.5 1.7-1.6 2.2-3 4.6-4.5 7l-1.8 2.9c-1.9 3.2-3.7 6.5-5.3 9.9-1 2.3-2 4.5-2.7 6.9-.1.3-.2.7-.2 1 0 .4-.2.9.2 1.1.4.2.8-.1 1.1-.3.9-.6 1.6-1.4 2.3-2.2 3.5-3.9 6.4-8.3 9.3-12.7l2.2-3.6c1-1.6 2-3.2 2.9-4.9.2-.3.4-.6.5-.9l1.2.7-5.7 9.8c-.4.7-.1 1.7.9 2 .1 0 .2 0 .2-.1L49.9 17c.2-.5.1-1.1-.4-1.3z"/></svg>