<svg xmlns="http://www.w3.org/2000/svg" viewBox="0 0 35 33"><path fill-rule="evenodd" clip-rule="evenodd" d="M35 20.2c-.1.9-.6 1.7-1.3 2.2l-9.3 7.2c-1 .7-2.1 1.2-3.3 1.2H6.6v1.1c0 .6-.5 1.1-1.1 1.1H1.1C.5 33 0 32.5 0 31.9V16.5c0-.6.5-1.1 1.1-1.1h4.4c.6 0 1.1.5 1.1 1.1v1.1h12c.6 0 1.1.5 1.1 1.1 0 2.2-.9 4.1-2.3 5.5h1.9c1 0 1.9-.3 2.7-.9l7.8-6.1c.7-.5 1.5-.8 2.4-.7.9.1 1.7.6 2.2 1.3.4.7.7 1.5.6 2.4zM4.4 17.6H2.2v13.2h2.2V17.6zm28.2 1.5c-.2-.2-.5-.4-.7-.4-.3 0-.6 0-.8.2L23.3 25c-1.1.9-2.6 1.4-4 1.4H12c-.6 0-1.1-.5-1.1-1.1 0-.6.5-1.1 1.1-1.1 2.6 0 4.9-1.9 5.4-4.4H6.6v8.8h14.6c.7 0 1.4-.2 2-.7l9.2-7.2c.2-.2.4-.5.4-.7 0-.4 0-.6-.2-.9zm-4.2-7c0 1.8-1.5 3.3-3.3 3.3-1.8 0-3.3-1.5-3.3-3.3 0-1.8 1.5-3.3 3.3-3.3 1.9 0 3.3 1.5 3.3 3.3zm-4.3 0c0 .6.5 1.1 1.1 1.1.6 0 1.1-.5 1.1-1.1 0-.6-.5-1.1-1.1-1.1-.6 0-1.1.5-1.1 1.1zM17.2 15c-.2.3-.5.4-.8.4-.2 0-.5-.1-.7-.3-.5-.4-.5-1.1-.1-1.5L26.5.4c.4-.5 1.1-.5 1.5-.1.5.4.5 1.1.1 1.5L17.2 15zm1.4-8.4c-1.8 0-3.3-1.5-3.3-3.3 0-1.8 1.5-3.3 3.3-3.3s3.3 1.5 3.3 3.3c0 1.8-1.5 3.3-3.3 3.3zm0-4.4c-.6 0-1.1.5-1.1 1.1s.5 1.1 1.1 1.1c.6 0 1.1-.5 1.1-1.1s-.5-1.1-1.1-1.1z"/></svg>