<svg xmlns="http://www.w3.org/2000/svg" viewBox="0 0 24 30"><path fill-rule="evenodd" clip-rule="evenodd" d="M23.9 4l-8.1 13.6c1.8 1.2 3 3.3 3 5.6 0 3.7-3 6.8-6.8 6.8-3.7 0-6.8-3-6.8-6.8 0-2.3 1.2-4.4 2.9-5.6L.1 4c-.2-.3-.1-.7.2-1L4.2.1H19.7l4 2.9c.3.3.4.7.2 1zM10.3 26.4H14c.4 0 .7-.3.7-.7 0-.4-.3-.7-.7-.7h-1.1v-4.7c0-.3-.2-.6-.5-.7-.3-.1-.6-.1-.8.2l-1.9 1.9c-.3.3-.3.7 0 1 .3.3.7.3 1 0l.6-.6V25h-1.1c-.4 0-.7.3-.7.7.1.4.4.7.8.7zM4.4 1.8L1.7 3.9l7.6 12.8 1.9-3.3L4.4 1.8zm3.5 3.1L12 12l4.1-7.1H7.9zm11.6-3.1l-6.9 12-1.6 2.7c.3 0 .7-.1 1-.1.9 0 1.8.2 2.5.5l7.8-13.1-2.8-2z"/></svg>