<svg xmlns="http://www.w3.org/2000/svg" viewBox="0 0 68 44"><path d="M54.5 13.9c0-4.5-3.6-8.1-8.1-8.1s-8.1 3.6-8.1 8.1 3.6 8.1 8.1 8.1 8.1-3.6 8.1-8.1zM46 19.4c-.2 0-.3-.1-.3-.4v-.5c0-.4 0-.4-.4-.5-.5-.1-.9-.2-1.4-.4-.3-.2-.4-.3-.3-.6.1-.3.1-.5.2-.8.1-.3.2-.4.5-.2.5.3 1 .4 1.5.5.3 0 .7 0 1-.1.6-.3.7-1 .2-1.4-.2-.1-.4-.3-.6-.3-.5-.2-1.1-.4-1.6-.7-.8-.5-1.3-1.2-1.3-2.1.1-1.1.7-1.8 1.7-2.2.4-.2.4-.1.4-.6v-.4c0-.3.1-.4.4-.4h.3c.7 0 .7 0 .7.7 0 .5 0 .5.5.6.4.1.7.2 1.1.3.2.1.3.2.2.4l-.3.9c-.1.3-.2.3-.4.2-.5-.3-1.1-.4-1.7-.3-.2 0-.3 0-.5.1-.5.2-.6.8-.2 1.2.2.2.5.3.7.4.5.2.9.4 1.4.6 1.4.8 1.8 2.5.8 3.7-.3.4-.8.7-1.4.9-.1 0-.2.1-.2.4v.7c0 .2-.1.3-.3.3H46zM34.6 12c1.2 0 2.2 1 2.2 2.3 0 1.2-1 2.3-2.2 2.3-1.2 0-2.2-1-2.2-2.3 0-1.3 1-2.3 2.2-2.3zM58.2 12c1.2 0 2.2 1 2.2 2.3 0 1.2-1 2.3-2.2 2.3-1.2 0-2.2-1-2.2-2.3 0-1.3 1-2.3 2.2-2.3z"/><path d="M64.3.6H29c-2 0-3.7 1.7-3.7 3.7v12.4h3.1V8.3c.3.1.6.1.9.1 2.1 0 3.7-1.7 3.7-3.8 0-.3 0-.6-.1-.9h27.5c0 .2-.1.5-.1.7 0 2.1 1.7 3.8 3.7 3.8.2 0 .4 0 .7-.1v11.4c-.2 0-.4-.1-.7-.1-2.1 0-3.7 1.7-3.7 3.8 0 .2 0 .5.1.7H40.8V27.1h23.5c2 0 3.7-1.7 3.7-3.7V4.3C68 2.2 66.4.6 64.3.6zM3.8 18.7c2 .8 4.7 1.2 7.6 1.2 1.5 0 3-.1 4.3-.4.7-.6 1.7-1.1 2.9-1.5 1.2-.4 2.6-.8 4.1-1v-2-.1V10v-.1-4.8V5c0-1.1-.7-2.7-3.8-3.9-2-.8-4.7-1.2-7.6-1.2-2.8.1-5.5.5-7.5 1.3C.7 2.4 0 3.9 0 5v25c0 1.1.7 2.7 3.8 3.9 2 .8 4.7 1.2 7.6 1.2.6 0 1.2 0 1.8-.1v-2.5c-.6 0-1.2.1-1.8.1-2.6 0-4.9-.4-6.7-1-1.7-.7-2.1-1.3-2.1-1.5v-1.6c.4.2.8.4 1.3.6 2 .8 4.7 1.2 7.6 1.2.6 0 1.2 0 1.8-.1v-2.5c-.6 0-1.2.1-1.8.1-2.6 0-4.9-.4-6.7-1-1.7-.7-2.1-1.3-2.1-1.5v-1.6c.4.2.8.4 1.3.6 2 .8 4.7 1.2 7.6 1.2.6 0 1.2 0 1.8-.1v-.6c0-.6.1-1.3.4-2.1-.7.1-1.5.1-2.2.1-2.6 0-4.9-.4-6.7-1-1.7-.7-2.1-1.3-2.1-1.5v-1.6c.1-.4.5-.2 1 0zm.8-15.2c1.8-.7 4.2-1 6.7-1 2.6 0 4.9.4 6.7 1 1.7.6 2.1 1.3 2.1 1.5 0 .2-.4.8-2.1 1.5-1.8.7-4.2 1-6.7 1-2.6 0-4.9-.4-6.7-1C2.9 5.9 2.5 5.2 2.5 5c0-.1.4-.8 2.1-1.5zM2.5 8.3c.4.2.8.4 1.3.6 2 .8 4.7 1.2 7.6 1.2 2.8 0 5.5-.4 7.6-1.2.5-.2.9-.4 1.3-.6v1.6c0 .2-.4.8-2.1 1.5-1.8.7-4.2 1-6.7 1-2.6 0-4.9-.4-6.7-1-1.7-.7-2.1-1.3-2.1-1.5l-.2-1.6zm0 4.9c.4.2.8.4 1.3.6 2 .8 4.7 1.2 7.6 1.2 2.8 0 5.5-.4 7.6-1.2.5-.2.9-.4 1.3-.6v1.6c0 .2-.4.8-2.1 1.5-1.8.7-4.2 1-6.7 1-2.6 0-4.9-.4-6.7-1-1.7-.7-2.1-1.3-2.1-1.5l-.2-1.6z"/><path d="M34.6 20.4c-2-.8-4.7-1.2-7.6-1.2-2.8 0-5.5.4-7.6 1.2-3.1 1.2-3.8 2.7-3.8 3.9V39.1c0 1.1.7 2.7 3.8 3.9 2 .8 4.7 1.2 7.6 1.2 2.8 0 5.5-.4 7.6-1.2 3.1-1.2 3.8-2.7 3.8-3.9V34.2v-.1V29.2v-.1V24.2v-.1c-.1-1-.7-2.6-3.8-3.7zm-14.3 2.3c1.8-.7 4.2-1 6.7-1 2.6 0 4.9.4 6.7 1 1.7.6 2.1 1.3 2.1 1.5 0 .2-.4.8-2.1 1.5-1.8.7-4.2 1-6.7 1-2.6 0-4.9-.4-6.7-1-1.7-.7-2.1-1.3-2.1-1.5-.1-.1.3-.8 2.1-1.5zm13.4 17.7c-1.8.7-4.2 1-6.7 1-2.6 0-4.9-.4-6.7-1-1.7-.7-2.1-1.3-2.1-1.5v-1.6c.4.2.8.4 1.3.6 2 .8 4.7 1.2 7.6 1.2 2.8 0 5.5-.4 7.6-1.2.5-.2.9-.4 1.3-.6v1.6c-.2.2-.6.8-2.3 1.5zm2.1-6.4c0 .2-.4.9-2.1 1.5-1.8.7-4.2 1-6.7 1-2.6 0-4.9-.4-6.7-1-1.7-.7-2.1-1.3-2.1-1.5v-1.6c.4.2.8.4 1.3.6 2 .8 4.7 1.2 7.6 1.2 2.8 0 5.5-.4 7.6-1.2.5-.2.9-.4 1.3-.6l-.2 1.6zm0-4.9c0 .2-.4.9-2.1 1.5-1.8.7-4.2 1-6.7 1-2.6 0-4.9-.4-6.7-1-1.7-.7-2.1-1.3-2.1-1.5v-1.6c.4.2.8.4 1.3.6 2 .8 4.7 1.2 7.6 1.2 2.8 0 5.5-.4 7.6-1.2.5-.2.9-.4 1.3-.6l-.2 1.6z"/></svg>