<svg xmlns="http://www.w3.org/2000/svg" viewBox="0 0 26 26"><path fill-rule="evenodd" clip-rule="evenodd" d="M24.7 20.7l-2.2 2.2-5.8-5.8c.1-.1.3-.2.4-.3l.9-.9 1-1c.3-.3.9-.3 1.3 0l4.5 4.5c.3.4.3.9-.1 1.3zm-11.4 3.1c-1.3-.6-2.5-1.5-3.7-2.4-1.1-.9-2.2-1.8-3.2-2.8-1-1-2-2.1-2.8-3.2-.9-1.1-1.7-2.4-2.4-3.7-1.5-3.1-1.7-6.6-.3-8l5.9 5.9c-.3.9-.2 2.1.4 2.8.8 1 1.7 1.9 2.6 2.7.9.9 1.8 1.7 2.7 2.6.8.7 1.9.8 2.8.4l5.9 5.9c-1.3 1.4-4.8 1.3-7.9-.2zM9.1 7l-.9.9c-.2.1-.3.2-.4.4L2.1 2.5C2.8 1.7 3.6 1 4.3.3c.3-.3.9-.4 1.2 0L10 4.8c.3.3.3.9 0 1.3l-.9.9z"/></svg>