<svg xmlns="http://www.w3.org/2000/svg" viewBox="0 0 31 31"><path fill-rule="evenodd" clip-rule="evenodd" d="M30.8 25.8c-.2.3-.6.4-1 .3l-5.7-1.5-1.5 5.7c-.1.4-.4.7-.8.7h-.1c-.3 0-.7-.2-.8-.5l-5.3-9.2-5.3 9.2c-.3.3-.6.5-.9.5h-.1c-.4-.1-.7-.3-.8-.7L7 24.6l-5.7 1.5c-.4.1-.8 0-1-.3-.3-.3-.4-.8-.2-1.1l5.6-9.8c-.6-1.3-.9-2.8-.9-4.3C4.8 4.8 9.6 0 15.5 0s10.7 4.8 10.7 10.7c0 1.5-.3 3-.9 4.3l5.6 9.8c.2.2.1.7-.1 1zM3 23.6l4.4-1.2c.2-.1.5 0 .7.1.2.1.4.3.5.6l1.2 4.4 3.7-6.4c-2.7-.5-5-2.1-6.5-4.2l-4 6.7zM15.5 1.9c-4.8 0-8.7 3.9-8.7 8.7 0 4.8 3.9 8.7 8.7 8.7 4.8 0 8.7-3.9 8.7-8.7 0-4.8-3.9-8.7-8.7-8.7zm8.6 15c-1.5 2.1-3.9 3.7-6.5 4.2l3.7 6.4 1.2-4.4c.1-.2.2-.5.5-.6.2-.1.5-.2.7-.1l4.4 1.2-4-6.7zm-4.8-5.4l.2 3c0 .3-.1.7-.4.9-.2.1-.4.2-.6.2-.1 0-.3 0-.4-.1l-2.6-1.1-2.6 1.1c-.3.1-.7.1-.9-.1-.3-.2-.4-.5-.4-.9l.2-3-1.9-2.4c-.2-.2-.3-.6-.2-.9.1-.3.4-.5.7-.6l2.7-.7 1.5-2.5c.3-.6 1.3-.6 1.7 0l1.5 2.5 2.7.7c.3.1.6.3.7.6.1.3 0 .7-.2.9l-1.7 2.4zM17 8.7c-.2-.1-.5-.2-.6-.4l-.9-1.5-.9 1.5c-.1.2-.3.4-.6.4l-1.7.4 1.1 1.4c.2.2.2.4.2.7V13l1.5-.7c.1-.1.3-.1.4-.1.1 0 .3 0 .4.1l1.5.7-.1-1.8c0-.2.1-.5.2-.7l1.1-1.4-1.6-.4z"/></svg>