<svg xmlns="http://www.w3.org/2000/svg" viewBox="0 0 52 45"><path d="M26 17.5c2.8 0 5.1-2.3 5.1-5.1S28.8 7.3 26 7.3s-5.1 2.3-5.1 5.1 2.3 5.1 5.1 5.1zm0-6.9c1 0 1.8.8 1.8 1.8s-.8 1.8-1.8 1.8-1.8-.8-1.8-1.8.8-1.8 1.8-1.8zM26 17.9c-5 0-9 4-9 9 0 .9.7 1.6 1.6 1.6h14.7c.9 0 1.6-.7 1.6-1.6.1-5-3.9-9-8.9-9zm-5.5 7.4a5.7 5.7 0 0 1 5.5-4.1c2.6 0 4.8 1.7 5.5 4.1h-11z"/><path d="M49.2 0H36c-1.4 0-2.5 1-2.7 2.3H18.7C18.5 1 17.3 0 16 0H2.8C1.2 0 0 1.2 0 2.8V19c0 1.5 1.2 2.8 2.8 2.8h2.9l2.2 3.9c.6 1.1 2.2 1.1 2.8 0l2-3.4V30c0 1.8 1.5 3.3 3.3 3.3h5l3.6 6.2c.6 1.1 2.2 1.1 2.8 0l3.6-6.2h4.9c1.8 0 3.3-1.5 3.3-3.3v-7.8l2 3.4c.6 1.1 2.2 1.1 2.8 0l2.2-3.9h2.9c1.5 0 2.8-1.2 2.8-2.8V2.8C52 1.2 50.8 0 49.2 0zM12.8 18.4c-1.9 0-1.7.1-3.4 3.1-2-3.5-1-3.1-6.1-3.1V3.3h10.5c-1.4 1.4-1 2.3-1 15.1zm23.1 11.7h-5.8c-1.2 0-1.3.6-4.1 5.4-2.8-4.8-2.8-5.4-4.1-5.4h-5.8V5.7H36c0 1.1 0 23.4-.1 24.4.1 0 0 0 0 0zm12.8-11.7c-5 0-4-.5-6.1 3.1-1.7-3-1.5-3.1-3.4-3.1 0-13.4.4-13.8-1-15.2h10.5v15.2zM45.8 41.7H6.2c-.9 0-1.6.7-1.6 1.6 0 .9.7 1.6 1.6 1.6h39.6c.9 0 1.6-.7 1.6-1.6 0-.9-.7-1.6-1.6-1.6z"/></svg>