<svg xmlns="http://www.w3.org/2000/svg" viewBox="0 0 29 35"><path d="M26.1 10.3l.9-1.2c.5-.6.4-1.5-.3-2l-2.4-1.8c-.6-.5-1.5-.4-2 .3l-.9 1.2c1.5.7 2.9 1.7 4.1 2.9l.6.6zM14.5 5.1c.6 0 1.3 0 1.9.1V3.6h1.1c.9 0 1.5-.6 1.5-1.4v-.8c0-.8-.6-1.4-1.4-1.4h-6.1c-.9 0-1.5.6-1.5 1.4v.7c0 .8.6 1.4 1.5 1.4h1.1v1.7c.6 0 1.3-.1 1.9-.1zM14.5 35c8 0 14.5-6.5 14.5-14.4 0-3.6-1.3-6.9-3.6-9.4-1.3-1.5-2.9-2.7-4.7-3.5-1.3-.6-2.8-1.1-4.4-1.3-.6-.1-1.3-.1-1.9-.1s-1.3 0-1.9.1C5.5 7.2 0 13.3 0 20.6 0 28.5 6.5 35 14.5 35zm4-24.4c1.9.7 3.5 2 4.7 3.5 1.1 1.4 1.8 3.1 2.1 4.9.1.5.1 1 .1 1.6h-11V9.8h.1c.5 0 1 0 1.5.1.9.1 1.7.3 2.5.7z"/></svg>